<svg width="806" height="76" viewBox="0 0 806 76" fill="none" xmlns="http://www.w3.org/2000/svg">
<path d="M12.8959 56.9547C10.8988 56.9547 9.08154 56.471 7.44396 55.5036C5.84633 54.5362 4.46838 53.206 3.31009 51.5131C2.19175 49.8202 1.33302 47.8451 0.733912 45.5879C0.174741 43.2904 -0.0649038 40.8518 0.0149778 38.2721C0.0948594 35.8536 0.394415 33.2336 0.913645 30.4121C1.47282 27.5906 2.25166 24.769 3.25018 21.9475C4.2487 19.0857 5.44692 16.3447 6.84485 13.7247C8.28272 11.0644 9.92029 8.7266 11.7576 6.71122C13.5948 4.69584 15.6318 3.08353 17.8685 1.8743C20.1052 0.624768 22.5616 0 25.2376 0C26.8752 0 28.2531 0.342615 29.3715 1.02784C30.5297 1.67277 31.4484 2.53938 32.1274 3.62768C32.8463 4.71599 33.3456 5.94537 33.6251 7.31583C33.9047 8.68629 34.0246 10.0769 33.9846 11.4877C33.9047 12.8178 33.705 14.1077 33.3855 15.3572C33.1059 16.6067 32.6865 17.7353 32.1274 18.743C31.6081 19.7104 30.9491 20.4964 30.1503 21.101C29.3914 21.6653 28.5127 21.9475 27.5142 21.9475C27.0349 21.9072 26.5756 21.746 26.1362 21.4638C25.7368 21.222 25.3175 20.8592 24.8781 20.3755C24.4787 19.8918 24.0993 19.1864 23.7398 18.2593C24.8182 17.816 25.657 17.0501 26.2561 15.9618C26.8951 14.8332 27.3744 13.6643 27.6939 12.4551C28.0534 11.0846 28.2931 9.5529 28.4129 7.85998C28.4928 6.20737 28.1533 4.99814 27.3944 4.2323C26.6355 3.46645 25.7768 3.08353 24.8182 3.08353C22.941 3.08353 20.9639 4.07107 18.887 6.04614C16.8101 8.02121 14.8729 10.7017 13.0756 14.0875C11.3182 17.433 9.82044 21.3429 8.58228 25.817C7.38405 30.2912 6.68509 35.0273 6.48538 40.0255C6.4055 42.2827 6.5453 44.1973 6.90476 45.7693C7.30417 47.3413 7.84337 48.6311 8.52236 49.6388C9.2413 50.6465 10.0401 51.372 10.9188 51.8154C11.7975 52.2588 12.6762 52.4805 13.5549 52.4805C14.9528 52.4805 16.2709 52.1782 17.509 51.5736C18.7472 50.969 19.8655 50.2233 20.8641 49.3365C21.9025 48.4497 22.7812 47.5227 23.5002 46.5553C24.259 45.6282 24.8382 44.8019 25.2376 44.0764C25.5172 43.5524 25.8167 43.2299 26.1362 43.109C26.4558 42.9881 26.7354 43.0284 26.975 43.2299C27.2147 43.3911 27.3744 43.6733 27.4543 44.0764C27.5342 44.4391 27.4543 44.8825 27.2147 45.4065C26.5357 46.777 25.6969 48.1474 24.6984 49.5179C23.7398 50.8884 22.6414 52.1177 21.4033 53.206C20.205 54.3347 18.887 55.2416 17.4491 55.9268C16.0113 56.612 14.4935 56.9547 12.8959 56.9547Z" fill="white"/>
<path d="M51.4188 36.0955C51.0194 37.6272 50.4802 39.0581 49.8012 40.3882C49.1222 41.7184 48.3034 42.8671 47.3448 43.8345C46.4262 44.8019 45.3677 45.5476 44.1695 46.0716C43.0112 46.6359 41.7331 46.9181 40.3352 46.9181C38.6976 46.9181 37.3996 46.5553 36.441 45.8298C35.5223 45.1445 34.8234 44.2779 34.3441 43.2299C33.9047 42.1819 33.6451 41.0331 33.5652 39.7836C33.4454 38.5341 33.3855 37.3652 33.3855 36.2768C33.3855 35.511 33.4854 34.6645 33.6851 33.7375C33.8448 32.8104 34.0845 31.8632 34.404 30.8958C34.7235 29.9284 35.1229 28.961 35.6022 27.9936C36.1214 27.0263 36.7206 26.1395 37.3996 25.3333C37.6392 24.6481 37.9987 24.0435 38.478 23.5195C38.9972 22.9955 39.5763 22.5723 40.2154 22.2498C40.8944 21.887 41.6133 21.625 42.3722 21.4638C43.1311 21.2623 43.87 21.1615 44.5889 21.1615C44.7087 21.1615 44.8086 21.1816 44.8884 21.222C45.0083 21.2623 45.1281 21.3026 45.2479 21.3429C45.7671 21.3832 46.4062 21.5847 47.1651 21.9475C47.9639 22.3103 48.7228 22.8544 49.4417 23.58C50.2006 24.3055 50.8396 25.2326 51.3589 26.3612C51.8781 27.4495 52.1377 28.7796 52.1377 30.3516C52.1377 30.6741 52.1177 31.0772 52.0778 31.5609C52.0378 32.0042 51.9979 32.3872 51.958 32.7096C52.8766 32.3469 53.8352 31.9035 54.8337 31.3795C55.8322 30.8555 56.7908 30.3113 57.7094 29.747C58.668 29.1424 59.5467 28.5378 60.3455 27.9332C61.1443 27.3286 61.7834 26.7844 62.2627 26.3007C62.6621 25.9379 63.0016 25.7364 63.2812 25.6961C63.5608 25.6558 63.7605 25.7364 63.8803 25.9379C64.0001 26.1395 64.0201 26.4216 63.9402 26.7844C63.8603 27.1472 63.6406 27.5503 63.2812 27.9936C63.0815 28.2355 62.5622 28.7192 61.7235 29.4447C60.9247 30.1702 59.9661 30.9562 58.8478 31.8027C57.7294 32.6492 56.5112 33.4755 55.1932 34.2816C53.8751 35.0878 52.617 35.6924 51.4188 36.0955ZM41.2938 26.9053C41.174 27.2681 41.114 27.651 41.114 28.0541C41.114 28.699 41.154 29.3842 41.2339 30.1098C41.3137 30.795 41.5135 31.4198 41.833 31.9841C42.1525 32.5484 42.6518 33.0321 43.3308 33.4352C44.0497 33.7979 45.0282 33.9793 46.2664 33.9793C46.4661 33.9793 46.6658 33.9793 46.8655 33.9793C47.0652 33.939 47.2649 33.8987 47.4646 33.8584C47.5844 33.3344 47.6843 32.8709 47.7642 32.4678C47.884 32.0244 47.9439 31.6415 47.9439 31.319C48.0238 30.5532 48.0238 29.7672 47.9439 28.961C47.864 28.1549 47.7043 27.4293 47.4646 26.7844C47.2649 26.0992 46.9853 25.555 46.6259 25.1519C46.3063 24.7086 45.9069 24.4869 45.4276 24.4869C44.6688 24.4869 43.9299 24.7086 43.2109 25.1519C42.5319 25.555 41.8929 26.1395 41.2938 26.9053ZM37.4595 37.5465C37.4595 38.2721 37.4994 38.9976 37.5793 39.7231C37.6592 40.4084 37.8189 41.0331 38.0586 41.5975C38.2982 42.1215 38.6177 42.5648 39.0172 42.9276C39.4166 43.2501 39.9358 43.4113 40.5748 43.4113C41.2938 43.4113 41.9528 43.2501 42.5519 42.9276C43.151 42.5648 43.6902 42.1215 44.1695 41.5975C44.6488 41.0331 45.0682 40.4084 45.4276 39.7231C45.8271 38.9976 46.1665 38.2519 46.4461 37.4861C46.1665 37.5264 45.887 37.5667 45.6074 37.607C45.3677 37.607 45.0882 37.607 44.7686 37.607C43.2509 37.607 41.9328 37.1636 40.8145 36.2768C39.7361 35.3498 38.8973 34.1809 38.2982 32.7701C38.0586 33.6165 37.8589 34.4429 37.6991 35.249C37.5393 36.0552 37.4595 36.821 37.4595 37.5465Z" fill="white"/>
<path d="M75.6229 47.2204C74.7042 47.2204 73.9054 47.039 73.2264 46.6762C72.5874 46.3538 72.0682 45.9104 71.6687 45.3461C71.2693 44.7818 71.0097 44.1368 70.8899 43.4113C70.7701 42.6455 70.81 41.8393 71.0097 40.9928C71.1295 40.4285 71.3292 39.6828 71.6088 38.7558C71.8884 37.7884 72.168 36.7605 72.4476 35.6722C72.7671 34.5436 73.0467 33.4352 73.2863 32.3469C73.5659 31.2182 73.7457 30.2106 73.8255 29.3238C73.9054 28.3967 73.8655 27.651 73.7057 27.0867C73.546 26.4821 73.2065 26.1798 72.6872 26.1798C72.0482 26.1798 71.3892 26.4015 70.7102 26.8449C70.0312 27.2479 69.3322 27.8123 68.6133 28.5378C67.9343 29.2633 67.2353 30.1098 66.5164 31.0772C65.8374 32.0042 65.1584 32.9716 64.4794 33.9793C64.1199 35.3498 63.8204 36.559 63.5807 37.607C63.3411 38.6147 63.1214 39.5418 62.9217 40.3882C62.762 41.1944 62.6022 41.9199 62.4424 42.5648C62.2827 43.1695 62.1429 43.7539 62.023 44.3182C61.9032 44.7213 61.5438 45.1244 60.9446 45.5274C60.3455 45.8902 59.7065 46.1925 59.0275 46.4344C58.3485 46.6762 57.7694 46.7971 57.2901 46.7971C56.7708 46.7971 56.5512 46.6157 56.631 46.253C56.671 46.0111 56.8108 45.467 57.0504 44.6205C57.2501 43.7741 57.5097 42.7865 57.8293 41.6579C58.1088 40.489 58.4084 39.2596 58.7279 37.9698C59.0475 36.6799 59.347 35.4505 59.6266 34.2816C59.8263 33.3545 60.046 32.3267 60.2856 31.1981C60.4853 30.2307 60.725 29.1021 61.0046 27.8123C61.3241 26.5224 61.6835 25.1116 62.083 23.58C62.3625 23.3381 62.6421 23.1567 62.9217 23.0358C63.2412 22.8746 63.5608 22.7536 63.8803 22.673C64.1998 22.5521 64.5393 22.4715 64.8988 22.4312C65.2183 22.4312 65.5378 22.4513 65.8574 22.4916C66.1369 22.532 66.4165 22.6126 66.6961 22.7335C67.0156 22.8141 67.2952 22.9552 67.5349 23.1567C67.415 23.4389 67.2753 23.842 67.1155 24.3659C66.9557 24.8496 66.796 25.3736 66.6362 25.9379C66.4764 26.5829 66.2767 27.2479 66.0371 27.9332C66.5563 27.2076 67.1355 26.4821 67.7745 25.7566C68.4535 24.9907 69.1724 24.3055 69.9313 23.7009C70.7301 23.0963 71.5689 22.6126 72.4476 22.2498C73.3263 21.8467 74.225 21.6452 75.1436 21.6452C75.9025 21.6452 76.5815 21.8669 77.1806 22.3103C77.7797 22.7536 78.239 23.3784 78.5585 24.1846C78.918 24.9504 79.1177 25.8775 79.1576 26.9658C79.2375 28.0541 79.0977 29.2432 78.7383 30.533L78.0792 33.1933C77.8795 34.0398 77.6199 35.0475 77.3004 36.2164C77.0208 37.345 76.6613 38.5945 76.222 39.965C75.9823 40.8518 75.8825 41.6176 75.9224 42.2625C76.0023 42.9075 76.4017 43.2299 77.1207 43.2299C77.8396 43.2299 78.7383 42.7865 79.8167 41.8998C80.935 41.013 82.0533 39.9448 83.1717 38.6953C84.29 37.4458 85.3485 36.1761 86.347 34.8862C87.3455 33.5561 88.1044 32.4879 88.6236 31.6818C88.9831 31.1578 89.3226 30.8152 89.6421 30.6539C89.9616 30.4927 90.2013 30.4726 90.361 30.5935C90.5607 30.7144 90.6606 30.9966 90.6606 31.4399C90.6606 31.843 90.5008 32.367 90.1813 33.0119C89.9017 33.5762 89.4624 34.3219 88.8633 35.249C88.3041 36.1761 87.6251 37.1636 86.8263 38.2116C86.0275 39.2596 85.1687 40.3278 84.2501 41.4161C83.3315 42.4641 82.3729 43.4314 81.3744 44.3182C80.3758 45.1647 79.3773 45.8499 78.3788 46.3739C77.4202 46.9382 76.5016 47.2204 75.6229 47.2204Z" fill="white"/>
<path d="M100.786 42.5044C100.346 43.109 99.8669 43.7136 99.3477 44.3182C98.8285 44.9228 98.2693 45.467 97.6702 45.9507C97.0711 46.4344 96.432 46.8173 95.753 47.0994C95.074 47.4219 94.3551 47.5831 93.5962 47.5831C91.719 47.5831 90.2612 47.2002 89.2227 46.4344C88.1843 45.6685 87.4054 44.7616 86.8862 43.7136C86.4069 42.6656 86.1273 41.5975 86.0474 40.5091C85.9276 39.3805 85.8677 38.4736 85.8677 37.7884C85.8677 35.9342 86.2272 34.0599 86.9461 32.1655C87.665 30.2307 88.6236 28.4773 89.8218 26.9053C91.0201 25.3333 92.378 24.0636 93.8958 23.0963C95.4535 22.0886 97.0311 21.5847 98.6288 21.5847C99.6273 21.5847 100.466 21.8064 101.145 22.2498C101.824 22.6529 102.383 23.1567 102.823 23.7613C103.262 24.366 103.581 25.0109 103.781 25.6961C104.021 26.3813 104.181 26.9859 104.26 27.5099C104.34 27.0263 104.42 26.5224 104.5 25.9984C104.58 25.555 104.66 25.0713 104.74 24.5473C104.82 24.0233 104.899 23.5195 104.979 23.0358C105.219 22.8343 105.479 22.673 105.758 22.5521C106.078 22.4312 106.397 22.3304 106.717 22.2498C107.076 22.1692 107.436 22.1087 107.795 22.0684C108.155 22.0684 108.494 22.0886 108.814 22.1289C109.453 22.2095 109.892 22.4312 110.132 22.794C109.013 26.5023 108.215 29.2835 107.735 31.1376C107.456 32.1856 107.236 33.0925 107.076 33.8584C106.916 34.4227 106.677 35.2893 106.357 36.4582C106.078 37.6272 105.738 38.9775 105.339 40.5091C104.939 42.0408 104.52 43.6935 104.081 45.467C103.641 47.2002 103.222 48.9133 102.823 50.6062C103.701 49.7194 104.64 48.7722 105.638 47.7645C106.677 46.7568 107.715 45.7088 108.754 44.6205C109.792 43.5322 110.811 42.4238 111.809 41.2951C112.848 40.1262 113.806 38.9775 114.685 37.8488C115.204 37.2039 115.644 36.8008 116.003 36.6396C116.402 36.4784 116.682 36.4985 116.842 36.7001C117.002 36.8613 117.041 37.1636 116.962 37.607C116.922 38.0101 116.722 38.4535 116.362 38.9371C115.723 39.8239 115.024 40.7711 114.266 41.7788C113.507 42.7462 112.708 43.7338 111.869 44.7414C111.07 45.7088 110.252 46.6762 109.413 47.6436C108.574 48.611 107.775 49.4977 107.016 50.3039C106.218 51.11 105.339 51.9565 104.38 52.8433C103.422 53.7704 102.483 54.8385 101.564 56.0477C101.405 56.8136 101.265 57.4988 101.145 58.1034C101.065 58.708 100.985 59.2522 100.905 59.7359C100.706 61.1466 100.566 62.3357 100.486 63.3031C100.446 64.3108 100.426 65.1774 100.426 65.9029C100.426 66.6688 100.446 67.354 100.486 67.9586C100.526 68.6035 100.546 69.2686 100.546 69.9539C100.586 71.4049 100.526 72.4126 100.366 72.9769C100.246 73.5412 99.7871 73.8234 98.9882 73.8234C98.5888 73.8234 98.0696 73.642 97.4305 73.2792C96.7915 72.9165 96.1724 72.4126 95.5733 71.7677C94.9742 71.1228 94.455 70.3368 94.0156 69.4097C93.6162 68.4826 93.4165 67.4346 93.4165 66.2657C93.4165 64.734 93.7161 63.2225 94.3152 61.7311C94.9143 60.28 95.7131 58.8491 96.7116 57.4383C96.9912 56.4307 97.2908 55.302 97.6103 54.0525C97.9697 52.803 98.3292 51.5131 98.6887 50.183C99.0482 48.8931 99.4076 47.5831 99.7671 46.253C100.127 44.9228 100.466 43.6733 100.786 42.5044ZM91.0201 39.4208C91.0201 40.5898 91.1598 41.4967 91.4394 42.1416C91.759 42.7865 92.1184 43.2702 92.5178 43.5927C92.9572 43.8748 93.3965 44.0361 93.8359 44.0764C94.2752 44.1167 94.6347 44.1368 94.9143 44.1368C95.753 44.1368 96.5718 43.7942 97.3706 43.109C98.1694 42.3835 98.8884 41.4967 99.5274 40.4487C100.206 39.4007 100.786 38.2721 101.265 37.0628C101.784 35.8133 102.164 34.6645 102.403 33.6165C102.523 33.0119 102.623 32.4678 102.703 31.9841C102.823 31.5004 102.922 31.0973 103.002 30.7749C102.243 30.8555 101.724 30.6942 101.445 30.2912C101.165 29.8881 101.005 29.1827 100.965 28.175C100.965 27.7719 100.925 27.3487 100.845 26.9053C100.766 26.4216 100.626 25.9984 100.426 25.6356C100.226 25.2326 99.9668 24.9101 99.6473 24.6683C99.3277 24.4264 98.9283 24.3055 98.449 24.3055C97.4106 24.3055 96.432 24.7892 95.5134 25.7566C94.6347 26.7239 93.8559 27.9533 93.1769 29.4447C92.4979 30.9361 91.9587 32.5686 91.5592 34.3421C91.1998 36.1156 91.0201 37.8085 91.0201 39.4208Z" fill="white"/>
<path d="M121.994 46.6762C120.476 46.6762 119.238 46.4344 118.28 45.9507C117.321 45.467 116.562 44.8825 116.003 44.1973C115.484 43.4718 115.104 42.7059 114.865 41.8998C114.665 41.0533 114.565 40.2875 114.565 39.6022C114.565 38.393 114.665 37.1233 114.865 35.7932C115.064 34.4227 115.304 33.1732 115.584 32.0445C115.863 30.8756 116.103 29.8881 116.303 29.0819C116.542 28.2758 116.702 27.7719 116.782 27.5704C117.141 26.4015 117.601 25.3938 118.16 24.5473C118.759 23.6606 119.578 23.056 120.616 22.7335C121.016 22.6529 121.435 22.5723 121.874 22.4916C122.234 22.4513 122.593 22.4312 122.953 22.4312C123.352 22.4312 123.712 22.4916 124.031 22.6126C122.953 25.3938 122.094 27.7115 121.455 29.5656C120.856 31.4198 120.396 32.9313 120.077 34.1002C119.718 35.4304 119.498 36.4985 119.418 37.3047C119.218 39.1185 119.378 40.489 119.897 41.4161C120.416 42.3431 121.475 42.8067 123.073 42.8067C124.111 42.8067 125.11 42.4238 126.068 41.6579C127.027 40.8518 127.905 39.8239 128.704 38.5744C128.584 37.9295 128.524 37.2644 128.524 36.5792C128.524 35.2893 128.624 34.0398 128.824 32.8305C129.064 31.581 129.323 30.4322 129.603 29.3842C129.922 28.2959 130.242 27.3286 130.561 26.4821C130.921 25.6356 131.22 24.9706 131.46 24.4869C131.899 23.5195 132.299 22.935 132.658 22.7335C133.018 22.4916 133.597 22.3506 134.396 22.3103C134.715 22.27 134.975 22.27 135.175 22.3103C135.414 22.3103 135.614 22.3304 135.774 22.3707C136.253 22.4916 136.493 22.7335 136.493 23.0963C136.493 23.7412 136.453 24.7086 136.373 25.9984C136.293 27.2883 136.053 28.6184 135.654 29.9889C135.374 31.1175 135.095 32.0849 134.815 32.891C134.575 33.6569 134.336 34.3219 134.096 34.8862C133.857 35.4102 133.617 35.8536 133.377 36.2164C133.138 36.5388 132.918 36.8412 132.718 37.1233C132.798 38.3325 132.898 39.2999 133.018 40.0255C133.138 40.751 133.277 41.3153 133.437 41.7184C133.637 42.0811 133.857 42.3431 134.096 42.5044C134.376 42.6253 134.675 42.6858 134.995 42.6858C135.554 42.6858 136.213 42.4238 136.972 41.8998C137.731 41.3355 138.51 40.6502 139.308 39.8441C140.147 38.9976 140.966 38.0907 141.765 37.1233C142.604 36.1156 143.362 35.1684 144.041 34.2816C144.72 33.3949 145.3 32.629 145.779 31.9841C146.258 31.2989 146.558 30.8756 146.678 30.7144C146.957 30.3516 147.217 30.1299 147.456 30.0493C147.736 29.9687 147.956 30.009 148.115 30.1702C148.275 30.2912 148.355 30.5129 148.355 30.8353C148.395 31.1175 148.315 31.4399 148.115 31.8027C147.317 33.3344 146.318 34.9669 145.12 36.7001C143.962 38.393 142.703 39.965 141.345 41.4161C140.027 42.8671 138.689 44.0764 137.331 45.0438C135.973 46.0111 134.695 46.4948 133.497 46.4948C132.419 46.4948 131.56 46.1321 130.921 45.4065C130.322 44.6407 129.803 43.5524 129.363 42.1416C128.445 43.5927 127.366 44.7213 126.128 45.5274C124.89 46.2933 123.512 46.6762 121.994 46.6762Z" fill="white"/>
<path d="M170.462 33.1329C169.264 34.9064 167.906 36.6396 166.388 38.3325C164.871 39.9851 163.253 41.4765 161.535 42.8067C159.858 44.0965 158.121 45.1445 156.323 45.9507C154.566 46.7568 152.848 47.1599 151.171 47.1599C150.292 47.1599 149.334 46.9382 148.295 46.4948C147.297 46.0918 146.378 45.4468 145.539 44.5601C144.7 43.6733 144.021 42.5245 143.502 41.1138C143.023 39.703 142.883 37.9899 143.083 35.9745C143.243 34.3219 143.742 32.5887 144.581 30.7749C145.459 28.9207 146.518 27.2278 147.756 25.6961C149.034 24.1644 150.452 22.8947 152.01 21.887C153.607 20.8793 155.205 20.3755 156.803 20.3755C158.32 20.3755 159.419 20.7584 160.098 21.5243C160.777 22.2901 161.076 23.2373 160.996 24.3659C160.876 25.6155 160.517 26.7643 159.918 27.8123C159.359 28.8602 158.68 29.8075 157.881 30.6539C157.082 31.5004 156.223 32.2662 155.305 32.9515C154.426 33.6367 153.587 34.2615 152.788 34.8258C151.91 35.4304 151.071 36.0149 150.272 36.5792C149.473 37.1032 148.774 37.5868 148.175 38.0302C148.215 39.0379 148.395 39.8844 148.715 40.5696C149.034 41.2548 149.433 41.8191 149.913 42.2625C150.392 42.6656 150.931 42.9679 151.53 43.1694C152.169 43.3307 152.808 43.4113 153.447 43.4113C154.805 43.4113 156.223 42.9881 157.701 42.1416C159.179 41.2548 160.617 40.2068 162.015 38.9976C163.453 37.7481 164.771 36.4582 165.969 35.1281C167.207 33.7979 168.226 32.6492 169.024 31.6818C169.304 31.3593 169.584 31.1779 169.863 31.1376C170.183 31.057 170.422 31.0973 170.582 31.2586C170.782 31.3795 170.882 31.6213 170.882 31.9841C170.882 32.3065 170.742 32.6895 170.462 33.1329ZM155.125 23.8218C154.646 23.8218 154.067 24.0636 153.388 24.5473C152.749 25.031 152.109 25.7364 151.47 26.6635C150.831 27.5503 150.232 28.6587 149.673 29.9889C149.114 31.2787 148.695 32.7701 148.415 34.463C148.894 34.1002 149.413 33.7375 149.973 33.3747C150.532 32.9716 151.091 32.5484 151.65 32.105C153.368 30.7749 154.566 29.6059 155.245 28.5982C155.924 27.5906 156.303 26.7239 156.383 25.9984C156.463 25.2326 156.383 24.6884 156.143 24.3659C155.904 24.0032 155.564 23.8218 155.125 23.8218Z" fill="white"/>
<path d="M163.872 45.4065C163.592 45.8499 163.293 46.1321 162.973 46.253C162.614 46.4142 162.314 46.4344 162.075 46.3134C161.795 46.2328 161.615 46.0313 161.535 45.7088C161.456 45.3864 161.536 44.9833 161.775 44.4996C161.895 44.2578 162.175 43.7136 162.614 42.8671C163.013 42.0207 163.513 41.013 164.112 39.8441C164.671 38.6348 165.29 37.345 165.969 35.9745C166.648 34.5638 167.287 33.2336 167.886 31.9841C168.525 30.7346 169.104 29.6261 169.624 28.6587C170.143 27.651 170.522 26.9255 170.762 26.4821C170.322 26.079 170.023 25.7969 169.863 25.6356C169.703 25.4341 169.584 25.031 169.504 24.4264C169.424 23.9024 169.544 23.2172 169.863 22.3707C170.183 21.5243 170.602 20.7181 171.121 19.9523C171.641 19.1461 172.22 18.4609 172.859 17.8966C173.498 17.3323 174.117 17.0501 174.716 17.0501C175.834 17.0501 176.613 17.4129 177.052 18.1384C177.532 18.864 177.811 19.6097 177.891 20.3755C177.971 20.8995 177.931 21.5646 177.771 22.3707C177.612 23.1769 177.312 23.9024 176.873 24.5473C176.993 24.6279 177.152 24.7287 177.352 24.8496C177.552 24.9303 177.871 24.9706 178.311 24.9706C178.95 24.9706 179.389 24.9303 179.629 24.8496C179.908 24.769 180.328 24.7287 180.887 24.7287C181.566 24.7287 182.125 24.9101 182.564 25.2729C183.004 25.5953 183.363 26.0186 183.643 26.5426C183.922 27.0263 184.122 27.5704 184.242 28.175C184.402 28.7393 184.501 29.2633 184.541 29.747C184.661 30.7547 184.402 31.8027 183.763 32.891C183.123 33.9793 182.345 35.1684 181.426 36.4582C180.867 37.2644 180.308 38.1713 179.749 39.179C179.189 40.1867 178.95 41.0936 179.03 41.8998C179.109 42.4238 179.249 42.847 179.449 43.1694C179.649 43.4919 180.208 43.6531 181.126 43.6531C181.805 43.6531 182.544 43.4113 183.343 42.9276C184.182 42.4036 185.021 41.7587 185.859 40.9928C186.738 40.1867 187.597 39.3201 188.436 38.393C189.274 37.4256 190.053 36.4985 190.772 35.6118C191.491 34.6847 192.09 33.8584 192.57 33.1329C193.089 32.4073 193.468 31.8833 193.708 31.5609C193.908 31.2384 194.167 31.0167 194.487 30.8958C194.806 30.7749 195.086 30.7749 195.325 30.8958C195.565 31.0167 195.705 31.2586 195.745 31.6213C195.825 31.9841 195.685 32.4678 195.325 33.0724C195.086 33.4755 194.666 34.1204 194.067 35.0072C193.508 35.8939 192.809 36.8815 191.97 37.9698C191.172 39.0581 190.273 40.1867 189.274 41.3556C188.276 42.4842 187.217 43.5322 186.099 44.4996C185.021 45.4267 183.922 46.1925 182.804 46.7971C181.726 47.4017 180.687 47.7041 179.689 47.7041C178.65 47.7041 177.791 47.5025 177.112 47.0994C176.433 46.6964 175.874 46.2127 175.435 45.6484C175.035 45.0438 174.736 44.3988 174.536 43.7136C174.376 42.9881 174.317 42.323 174.356 41.7184C174.396 41.2347 174.516 40.7308 174.716 40.2068C174.956 39.6425 175.215 39.0782 175.495 38.5139C175.814 37.9093 176.134 37.3248 176.453 36.7605C176.813 36.1559 177.132 35.5715 177.412 35.0072C178.091 33.8382 178.63 32.8507 179.03 32.0445C179.469 31.1981 179.689 30.4927 179.689 29.9284C179.689 29.5656 179.609 29.2432 179.449 28.961C179.289 28.6789 179.03 28.5378 178.67 28.5378C178.43 28.5378 178.251 28.5579 178.131 28.5982C178.051 28.5982 177.951 28.5982 177.831 28.5982C177.751 28.5982 177.612 28.6184 177.412 28.6587C177.252 28.6587 176.993 28.6587 176.633 28.6587C176.114 28.6587 175.675 28.5781 175.315 28.4169C174.956 28.2556 174.616 28.1347 174.297 28.0541C174.137 28.3363 173.777 28.9409 173.218 29.8679C172.659 30.795 172 31.8833 171.241 33.1329C170.522 34.3824 169.743 35.6924 168.905 37.0628C168.106 38.4333 167.347 39.7231 166.628 40.9324C165.909 42.1013 165.31 43.109 164.831 43.9554C164.311 44.7616 163.992 45.2453 163.872 45.4065Z" fill="white"/>
<path d="M230.373 30.4121C230.533 30.1702 230.733 30.0292 230.973 29.9889C231.252 29.9082 231.472 29.9284 231.632 30.0493C231.791 30.1702 231.871 30.3718 231.871 30.6539C231.911 30.9361 231.811 31.319 231.572 31.8027C230.773 33.3344 229.714 34.987 228.396 36.7605C227.118 38.5341 225.76 40.2068 224.322 41.7788C222.885 43.3105 221.487 44.5802 220.129 45.5879C218.771 46.5956 217.632 47.0994 216.714 47.0994C215.396 47.0994 214.297 46.8374 213.419 46.3134C212.54 45.7894 211.841 45.1445 211.322 44.3787C210.842 43.6128 210.503 42.7865 210.303 41.8998C210.104 40.9727 210.044 40.1262 210.123 39.3604C210.163 38.7155 210.303 37.5667 210.543 35.9141C210.783 34.2212 211.102 32.2864 211.501 30.1098C211.901 27.8929 212.34 25.5349 212.819 23.0358C213.339 20.4964 213.878 18.0578 214.437 15.72C213.758 15.8006 213.079 15.8812 212.4 15.9618C211.721 16.0424 211.102 16.0827 210.543 16.0827C209.265 16.0827 208.067 15.9417 206.948 15.6595C205.79 15.337 204.931 15.0347 204.372 14.7526C204.052 14.5914 203.913 14.3697 203.953 14.0875C203.993 13.765 204.112 13.4627 204.312 13.1806C204.512 12.8581 204.771 12.5961 205.091 12.3946C205.371 12.1527 205.63 12.0318 205.87 12.0318C206.629 12.1124 207.447 12.1931 208.326 12.2737C209.205 12.314 210.163 12.314 211.202 12.2737C211.961 12.2334 212.68 12.1729 213.359 12.0923C214.078 12.0117 214.777 11.9109 215.456 11.79C215.975 9.85521 216.474 8.18244 216.953 6.77168C217.473 5.3206 217.932 4.31291 218.331 3.74861C218.451 3.54707 218.711 3.38584 219.11 3.26492C219.549 3.10369 220.009 3.00292 220.488 2.96261C220.967 2.88199 221.427 2.88199 221.866 2.96261C222.305 3.00292 222.625 3.14399 222.825 3.38584C223.024 3.7083 223.104 4.53461 223.064 5.86476C223.024 7.19491 222.805 8.88783 222.405 10.9435C224.083 10.9435 225.561 11.0443 226.839 11.2458C228.157 11.4071 229.275 11.6086 230.194 11.8504C231.112 12.052 231.851 12.2737 232.41 12.5155C232.97 12.7171 233.389 12.8581 233.669 12.9387C233.948 13.0194 234.088 13.2209 234.088 13.5434C234.128 13.8658 234.068 14.2084 233.908 14.5712C233.788 14.8937 233.569 15.1758 233.249 15.4177C232.93 15.6595 232.57 15.7401 232.171 15.6595C231.771 15.6192 231.312 15.5386 230.793 15.4177C230.314 15.2967 229.714 15.196 228.995 15.1154C228.316 15.0347 227.498 14.9541 226.539 14.8735C225.581 14.7929 224.462 14.7526 223.184 14.7526C222.944 14.7526 222.665 14.7727 222.345 14.813C222.066 14.813 221.766 14.813 221.447 14.813C221.287 15.458 221.127 16.1029 220.967 16.7478C220.848 17.3524 220.668 17.9973 220.428 18.6826C219.909 20.2949 219.31 22.0483 218.631 23.9427C218.032 25.5953 217.313 27.4898 216.474 29.6261C215.635 31.7624 214.697 34.0398 213.658 36.4582C213.419 38.1915 213.439 39.5216 213.718 40.4487C214.038 41.3355 214.417 41.9804 214.856 42.3835C215.376 42.8268 216.015 43.0687 216.774 43.109C217.373 43.1896 218.092 42.9881 218.93 42.5044C219.809 41.9804 220.708 41.2951 221.626 40.4487C222.545 39.6022 223.464 38.6752 224.382 37.6675C225.341 36.6598 226.22 35.6722 227.018 34.7048C227.817 33.7375 228.516 32.8709 229.115 32.105C229.714 31.2989 230.134 30.7346 230.373 30.4121Z" fill="white"/>
<path d="M257.693 32.4073C257.973 32.0849 258.252 31.9236 258.532 31.9236C258.851 31.8833 259.091 31.9639 259.251 32.1655C259.45 32.3267 259.53 32.5887 259.49 32.9515C259.49 33.3142 259.331 33.7173 259.011 34.1607C258.252 35.2087 257.373 36.297 256.375 37.4256C255.376 38.5139 254.298 39.5821 253.14 40.6301C252.021 41.6781 250.883 42.6656 249.725 43.5927C248.566 44.5198 247.448 45.2856 246.37 45.8902C245.171 46.5754 244.153 46.9181 243.314 46.9181C242.515 46.9181 241.717 46.3941 240.918 45.3461C240.199 44.419 239.839 43.4314 239.839 42.3835C239.879 41.2951 240.119 39.9448 240.558 38.3325C240.838 37.3248 241.217 36.1358 241.697 34.7653C242.216 33.3545 242.615 32.0042 242.895 30.7144C243.214 29.4246 243.314 28.3363 243.194 27.4495C243.075 26.5224 242.555 26.0589 241.637 26.0589C240.998 26.0589 240.299 26.2806 239.54 26.7239C238.821 27.1673 238.082 27.7518 237.323 28.4773C236.604 29.1626 235.905 29.9486 235.226 30.8353C234.547 31.7221 233.948 32.5887 233.429 33.4352C233.109 35.0072 232.79 36.559 232.47 38.0907C232.191 39.3805 231.891 40.7913 231.572 42.323C231.292 43.8144 231.012 45.1445 230.733 46.3134C230.493 46.515 230.234 46.6561 229.954 46.7367C229.674 46.8173 229.415 46.8576 229.175 46.8576C228.896 46.8576 228.616 46.8374 228.336 46.7971C228.017 46.7165 227.717 46.5956 227.438 46.4344C227.198 46.2731 226.959 46.0514 226.719 45.7693C226.479 45.5274 226.299 45.1848 226.18 44.7414C227.977 37.2845 229.395 31.2989 230.433 26.7844C231.472 22.27 232.271 18.8237 232.83 16.4455C233.469 13.624 233.908 11.6691 234.148 10.5807C234.268 9.8149 234.368 9.06921 234.447 8.34367C234.527 7.69875 234.567 7.03368 234.567 6.34845C234.567 5.66322 234.507 5.03845 234.387 4.47414C234.707 4.27261 235.047 4.11138 235.406 3.99045C235.805 3.86953 236.185 3.76876 236.544 3.68815C236.984 3.56722 237.423 3.46645 237.862 3.38584C238.302 3.30522 238.701 3.26492 239.061 3.26492C239.38 3.26492 239.68 3.30522 239.959 3.38584C240.239 3.42615 240.419 3.54707 240.498 3.74861C240.738 3.95015 240.838 4.35322 240.798 4.95784C240.798 5.56245 240.758 6.18722 240.678 6.83214C240.518 7.59798 240.339 8.42429 240.139 9.31106C239.3 12.576 238.362 15.7603 237.323 18.864C236.285 21.9273 235.326 25.2124 234.447 28.7192C234.967 27.913 235.586 27.0867 236.305 26.2403C237.024 25.3938 237.802 24.6279 238.641 23.9427C239.52 23.2172 240.439 22.6327 241.397 22.1893C242.356 21.7056 243.374 21.4638 244.453 21.4638C245.012 21.4638 245.531 21.5646 246.01 21.7661C246.529 21.9273 246.969 22.2296 247.328 22.673C247.728 23.0761 248.027 23.6404 248.227 24.3659C248.427 25.0512 248.507 25.9178 248.467 26.9658C248.467 27.6107 248.387 28.2758 248.227 28.961C248.107 29.6462 247.927 30.4121 247.688 31.2586C247.448 32.0647 247.129 32.9716 246.729 33.9793C246.37 34.987 245.93 36.1559 245.411 37.4861C245.052 38.4132 244.772 39.1992 244.572 39.8441C244.373 40.489 244.413 41.0533 244.692 41.537C245.052 42.1819 245.751 42.3431 246.789 42.0207C247.868 41.6579 249.465 40.6099 251.582 38.8767C252.061 38.4736 252.6 37.9698 253.2 37.3652C253.799 36.7605 254.378 36.1559 254.937 35.5513C255.496 34.9064 256.015 34.3018 256.495 33.7375C256.974 33.1732 257.373 32.7298 257.693 32.4073Z" fill="white"/>
<path d="M282.496 33.1329C281.298 34.9064 279.94 36.6396 278.422 38.3325C276.904 39.9851 275.287 41.4765 273.569 42.8067C271.892 44.0965 270.154 45.1445 268.357 45.9507C266.6 46.7568 264.882 47.1599 263.205 47.1599C262.326 47.1599 261.367 46.9382 260.329 46.4948C259.331 46.0918 258.412 45.4468 257.573 44.5601C256.734 43.6733 256.055 42.5245 255.536 41.1138C255.057 39.703 254.917 37.9899 255.117 35.9745C255.277 34.3219 255.776 32.5887 256.615 30.7749C257.493 28.9207 258.552 27.2278 259.79 25.6961C261.068 24.1644 262.486 22.8947 264.044 21.887C265.641 20.8793 267.239 20.3755 268.836 20.3755C270.354 20.3755 271.453 20.7584 272.132 21.5243C272.811 22.2901 273.11 23.2373 273.03 24.3659C272.91 25.6155 272.551 26.7643 271.952 27.8123C271.393 28.8602 270.714 29.8075 269.915 30.6539C269.116 31.5004 268.257 32.2662 267.339 32.9515C266.46 33.6367 265.621 34.2615 264.822 34.8258C263.944 35.4304 263.105 36.0149 262.306 36.5792C261.507 37.1032 260.808 37.5868 260.209 38.0302C260.249 39.0379 260.429 39.8844 260.748 40.5696C261.068 41.2548 261.467 41.8191 261.947 42.2625C262.426 42.6656 262.965 42.9679 263.564 43.1694C264.203 43.3307 264.842 43.4113 265.481 43.4113C266.839 43.4113 268.257 42.9881 269.735 42.1416C271.213 41.2548 272.651 40.2068 274.049 38.9976C275.487 37.7481 276.805 36.4582 278.003 35.1281C279.241 33.7979 280.259 32.6492 281.058 31.6818C281.338 31.3593 281.617 31.1779 281.897 31.1376C282.217 31.057 282.456 31.0973 282.616 31.2586C282.816 31.3795 282.916 31.6213 282.916 31.9841C282.916 32.3065 282.776 32.6895 282.496 33.1329ZM267.159 23.8218C266.68 23.8218 266.1 24.0636 265.421 24.5473C264.782 25.031 264.143 25.7364 263.504 26.6635C262.865 27.5503 262.266 28.6587 261.707 29.9889C261.148 31.2787 260.728 32.7701 260.449 34.463C260.928 34.1002 261.447 33.7375 262.007 33.3747C262.566 32.9716 263.125 32.5484 263.684 32.105C265.401 30.7749 266.6 29.6059 267.279 28.5982C267.958 27.5906 268.337 26.7239 268.417 25.9984C268.497 25.2326 268.417 24.6884 268.177 24.3659C267.938 24.0032 267.598 23.8218 267.159 23.8218Z" fill="white"/>
<path d="M326.591 35.249C326.032 36.7001 325.393 38.1108 324.674 39.4813C323.955 40.8518 323.156 42.0811 322.277 43.1694C321.398 44.2578 320.46 45.1244 319.461 45.7693C318.463 46.4142 317.384 46.7367 316.226 46.7367C314.349 46.7367 312.931 46.1119 311.972 44.8624C311.014 43.5725 310.355 42.0005 309.995 40.1464C309.436 40.9928 308.837 41.8393 308.198 42.6858C307.559 43.5322 306.88 44.2779 306.161 44.9228C305.442 45.5678 304.703 46.0918 303.944 46.4948C303.185 46.8979 302.427 47.0994 301.668 47.0994C300.629 47.0994 299.751 46.8778 299.032 46.4344C298.313 45.991 297.714 45.3864 297.234 44.6205C296.795 43.8144 296.475 42.9075 296.276 41.8998C296.076 40.8518 295.976 39.7433 295.976 38.5744V37.8488C295.976 36.3575 296.096 34.8258 296.336 33.2538C296.575 31.6818 296.835 30.2307 297.114 28.9006C297.434 27.5704 297.754 26.4216 298.073 25.4543C298.393 24.4466 298.632 23.7815 298.792 23.459C299.072 23.056 299.671 22.673 300.589 22.3103C301.548 21.9072 302.487 21.746 303.405 21.8266C303.845 21.8669 304.064 22.0483 304.064 22.3707C304.104 22.6932 304.064 23.0963 303.944 23.58C303.785 24.2652 303.505 25.293 303.106 26.6635C302.706 28.0339 302.287 29.5253 301.847 31.1376C301.448 32.7499 301.089 34.3421 300.769 35.9141C300.45 37.4861 300.29 38.7961 300.29 39.8441C300.29 41.1339 300.489 42.061 300.889 42.6253C301.288 43.1896 301.907 43.4718 302.746 43.4718C303.745 43.4718 304.843 42.9075 306.041 41.7788C307.279 40.6502 308.478 38.7356 309.636 36.035C309.596 35.7932 309.576 35.5513 309.576 35.3095C309.576 35.0676 309.576 34.8056 309.576 34.5235C309.576 32.7096 309.636 30.9764 309.756 29.3238C309.915 27.6712 310.195 26.2201 310.595 24.9706C311.034 23.721 311.613 22.7335 312.332 22.008C313.091 21.2824 314.069 20.9196 315.268 20.9196C315.747 20.9196 316.146 21.0607 316.466 21.3429C316.785 21.625 316.945 22.0281 316.945 22.5521C316.945 23.842 316.486 25.6759 315.567 28.0541C314.688 30.3919 313.63 32.9716 312.392 35.7932C312.272 35.9544 312.192 36.1156 312.152 36.2768C312.272 37.0427 312.412 37.8488 312.572 38.6953C312.771 39.5418 313.031 40.3278 313.35 41.0533C313.67 41.7385 314.049 42.323 314.489 42.8067C314.928 43.2501 315.447 43.4718 316.046 43.4718C316.925 43.4718 317.724 43.0485 318.443 42.2021C319.202 41.3556 319.861 40.3278 320.42 39.1185C321.019 37.9093 321.538 36.6396 321.978 35.3095C322.417 33.939 322.756 32.7298 322.996 31.6818C322.876 31.2384 322.776 30.8152 322.697 30.4121C322.617 29.9687 322.577 29.4649 322.577 28.9006C322.577 27.651 322.756 26.5829 323.116 25.6961C323.475 24.8093 323.935 24.0838 324.494 23.5195C325.093 22.9149 325.712 22.4715 326.351 22.1893C327.03 21.9072 327.649 21.7661 328.208 21.7661C329.207 21.7661 329.706 22.2095 329.706 23.0963C329.706 23.7412 329.546 24.8698 329.227 26.4821C328.907 28.0541 328.448 29.8478 327.849 31.8632C328.568 32.1856 329.487 32.3469 330.605 32.3469C331.643 32.3469 332.602 32.2259 333.481 31.9841C334.359 31.7019 335.158 31.3593 335.877 30.9562C336.596 30.5532 337.255 30.1098 337.854 29.6261C338.453 29.1424 339.032 28.6789 339.592 28.2355C340.031 27.913 340.39 27.8929 340.67 28.175C340.949 28.4572 340.91 28.9006 340.55 29.5052C340.231 30.0292 339.671 30.6338 338.873 31.319C338.114 32.0042 337.175 32.6693 336.057 33.3142C334.978 33.9189 333.76 34.4429 332.402 34.8862C331.084 35.2893 329.686 35.4908 328.208 35.4908C327.969 35.4908 327.709 35.4707 327.43 35.4304C327.15 35.3901 326.87 35.3296 326.591 35.249Z" fill="white"/>
<path d="M352.772 36.0955C352.373 37.6272 351.833 39.0581 351.154 40.3882C350.475 41.7184 349.657 42.8671 348.698 43.8345C347.779 44.8019 346.721 45.5476 345.523 46.0716C344.364 46.6359 343.086 46.9181 341.688 46.9181C340.051 46.9181 338.753 46.5553 337.794 45.8298C336.876 45.1445 336.177 44.2779 335.697 43.2299C335.258 42.1819 334.998 41.0331 334.918 39.7836C334.799 38.5341 334.739 37.3652 334.739 36.2768C334.739 35.511 334.839 34.6645 335.038 33.7375C335.198 32.8104 335.438 31.8632 335.757 30.8958C336.077 29.9284 336.476 28.961 336.955 27.9936C337.475 27.0263 338.074 26.1395 338.753 25.3333C338.992 24.6481 339.352 24.0435 339.831 23.5195C340.35 22.9955 340.93 22.5723 341.569 22.2498C342.248 21.887 342.966 21.625 343.725 21.4638C344.484 21.2623 345.223 21.1615 345.942 21.1615C346.062 21.1615 346.162 21.1816 346.242 21.222C346.361 21.2623 346.481 21.3026 346.601 21.3429C347.12 21.3832 347.759 21.5847 348.518 21.9475C349.317 22.3103 350.076 22.8544 350.795 23.58C351.554 24.3055 352.193 25.2326 352.712 26.3612C353.231 27.4495 353.491 28.7796 353.491 30.3516C353.491 30.6741 353.471 31.0772 353.431 31.5609C353.391 32.0042 353.351 32.3872 353.311 32.7096C354.23 32.3469 355.188 31.9035 356.187 31.3795C357.185 30.8555 358.144 30.3113 359.063 29.747C360.021 29.1424 360.9 28.5378 361.699 27.9332C362.498 27.3286 363.137 26.7844 363.616 26.3007C364.015 25.9379 364.355 25.7364 364.634 25.6961C364.914 25.6558 365.114 25.7364 365.233 25.9379C365.353 26.1395 365.373 26.4216 365.293 26.7844C365.214 27.1472 364.994 27.5503 364.634 27.9936C364.435 28.2355 363.915 28.7192 363.077 29.4447C362.278 30.1702 361.319 30.9562 360.201 31.8027C359.083 32.6492 357.864 33.4755 356.546 34.2816C355.228 35.0878 353.97 35.6924 352.772 36.0955ZM342.647 26.9053C342.527 27.2681 342.467 27.651 342.467 28.0541C342.467 28.699 342.507 29.3842 342.587 30.1098C342.667 30.795 342.867 31.4198 343.186 31.9841C343.506 32.5484 344.005 33.0321 344.684 33.4352C345.403 33.7979 346.381 33.9793 347.62 33.9793C347.819 33.9793 348.019 33.9793 348.219 33.9793C348.418 33.939 348.618 33.8987 348.818 33.8584C348.938 33.3344 349.038 32.8709 349.117 32.4678C349.237 32.0244 349.297 31.6415 349.297 31.319C349.377 30.5532 349.377 29.7672 349.297 28.961C349.217 28.1549 349.057 27.4293 348.818 26.7844C348.618 26.0992 348.339 25.555 347.979 25.1519C347.66 24.7086 347.26 24.4869 346.781 24.4869C346.022 24.4869 345.283 24.7086 344.564 25.1519C343.885 25.555 343.246 26.1395 342.647 26.9053ZM338.813 37.5465C338.813 38.2721 338.853 38.9976 338.932 39.7231C339.012 40.4084 339.172 41.0331 339.412 41.5975C339.651 42.1215 339.971 42.5648 340.37 42.9276C340.77 43.2501 341.289 43.4113 341.928 43.4113C342.647 43.4113 343.306 43.2501 343.905 42.9276C344.504 42.5648 345.043 42.1215 345.523 41.5975C346.002 41.0331 346.421 40.4084 346.781 39.7231C347.18 38.9976 347.52 38.2519 347.799 37.4861C347.52 37.5264 347.24 37.5667 346.961 37.607C346.721 37.607 346.441 37.607 346.122 37.607C344.604 37.607 343.286 37.1636 342.168 36.2768C341.089 35.3498 340.251 34.1809 339.651 32.7701C339.412 33.6165 339.212 34.4429 339.052 35.249C338.893 36.0552 338.813 36.821 338.813 37.5465Z" fill="white"/>
<path d="M356.906 45.4065C356.626 45.8499 356.327 46.1321 356.007 46.253C355.648 46.4142 355.348 46.4344 355.109 46.3134C354.829 46.2328 354.649 46.0313 354.569 45.7088C354.489 45.3864 354.569 44.9833 354.809 44.4996C354.929 44.2578 355.208 43.7136 355.648 42.8671C356.047 42.0207 356.546 41.013 357.145 39.8441C357.705 38.6348 358.324 37.345 359.003 35.9745C359.682 34.5638 360.321 33.2336 360.92 31.9841C361.559 30.7346 362.138 29.6261 362.657 28.6587C363.177 27.651 363.556 26.9255 363.796 26.4821C363.356 26.079 363.057 25.7969 362.897 25.6356C362.737 25.4341 362.617 25.031 362.537 24.4264C362.458 23.9024 362.577 23.2172 362.897 22.3707C363.216 21.5243 363.636 20.7181 364.155 19.9523C364.674 19.1461 365.253 18.4609 365.893 17.8966C366.532 17.3323 367.151 17.0501 367.75 17.0501C368.868 17.0501 369.647 17.4129 370.086 18.1384C370.566 18.864 370.845 19.6097 370.925 20.3755C371.005 20.8995 370.965 21.5646 370.805 22.3707C370.645 23.1769 370.346 23.9024 369.907 24.5473C370.026 24.6279 370.186 24.7287 370.386 24.8496C370.586 24.9303 370.905 24.9706 371.344 24.9706C371.983 24.9706 372.423 24.9303 372.662 24.8496C372.942 24.769 373.361 24.7287 373.921 24.7287C374.6 24.7287 375.159 24.9101 375.598 25.2729C376.038 25.5953 376.397 26.0186 376.677 26.5426C376.956 27.0263 377.156 27.5704 377.276 28.175C377.435 28.7393 377.535 29.2633 377.575 29.747C377.695 30.7547 377.435 31.8027 376.796 32.891C376.157 33.9793 375.378 35.1684 374.46 36.4582C373.901 37.2644 373.341 38.1713 372.782 39.179C372.223 40.1867 371.983 41.0936 372.063 41.8998C372.143 42.4238 372.283 42.847 372.483 43.1694C372.682 43.4919 373.242 43.6531 374.16 43.6531C374.839 43.6531 375.578 43.4113 376.377 42.9276C377.216 42.4036 378.055 41.7587 378.893 40.9928C379.772 40.1867 380.631 39.3201 381.469 38.393C382.308 37.4256 383.087 36.4985 383.806 35.6118C384.525 34.6847 385.124 33.8584 385.603 33.1329C386.123 32.4073 386.502 31.8833 386.742 31.5609C386.941 31.2384 387.201 31.0167 387.52 30.8958C387.84 30.7749 388.12 30.7749 388.359 30.8958C388.599 31.0167 388.739 31.2586 388.779 31.6213C388.858 31.9841 388.719 32.4678 388.359 33.0724C388.12 33.4755 387.7 34.1204 387.101 35.0072C386.542 35.8939 385.843 36.8815 385.004 37.9698C384.205 39.0581 383.307 40.1867 382.308 41.3556C381.31 42.4842 380.251 43.5322 379.133 44.4996C378.055 45.4267 376.956 46.1925 375.838 46.7971C374.759 47.4017 373.721 47.7041 372.722 47.7041C371.684 47.7041 370.825 47.5025 370.146 47.0994C369.467 46.6964 368.908 46.2127 368.469 45.6484C368.069 45.0438 367.77 44.3988 367.57 43.7136C367.41 42.9881 367.35 42.323 367.39 41.7184C367.43 41.2347 367.55 40.7308 367.75 40.2068C367.989 39.6425 368.249 39.0782 368.529 38.5139C368.848 37.9093 369.168 37.3248 369.487 36.7605C369.847 36.1559 370.166 35.5715 370.446 35.0072C371.125 33.8382 371.664 32.8507 372.063 32.0445C372.503 31.1981 372.722 30.4927 372.722 29.9284C372.722 29.5656 372.643 29.2432 372.483 28.961C372.323 28.6789 372.063 28.5378 371.704 28.5378C371.464 28.5378 371.285 28.5579 371.165 28.5982C371.085 28.5982 370.985 28.5982 370.865 28.5982C370.785 28.5982 370.645 28.6184 370.446 28.6587C370.286 28.6587 370.026 28.6587 369.667 28.6587C369.148 28.6587 368.708 28.5781 368.349 28.4169C367.989 28.2556 367.65 28.1347 367.33 28.0541C367.171 28.3363 366.811 28.9409 366.252 29.8679C365.693 30.795 365.034 31.8833 364.275 33.1329C363.556 34.3824 362.777 35.6924 361.938 37.0628C361.14 38.4333 360.381 39.7231 359.662 40.9324C358.943 42.1013 358.344 43.109 357.864 43.9554C357.345 44.7616 357.026 45.2453 356.906 45.4065Z" fill="white"/>
<path d="M383.207 44.7414C384.964 37.2845 386.362 31.2989 387.401 26.7844C388.479 22.27 389.298 18.8237 389.857 16.4455C390.496 13.624 390.935 11.6691 391.175 10.5807C391.295 9.8149 391.395 9.06921 391.475 8.34367C391.554 7.69875 391.594 7.03368 391.594 6.34845C391.594 5.66322 391.535 5.03845 391.415 4.47414C391.734 4.27261 392.074 4.11138 392.433 3.99045C392.833 3.86953 393.212 3.76876 393.571 3.68815C394.011 3.56722 394.45 3.46645 394.89 3.38584C395.329 3.30522 395.728 3.26492 396.088 3.26492C396.407 3.26492 396.707 3.30522 396.986 3.38584C397.266 3.42615 397.446 3.54707 397.526 3.74861C397.765 3.95015 397.865 4.35322 397.825 4.95784C397.825 5.56245 397.785 6.18722 397.705 6.83214C397.546 7.59798 397.366 8.42429 397.166 9.31106C396.687 11.0443 396.028 13.5434 395.189 16.8083C394.47 19.5895 393.492 23.3784 392.253 28.175C391.055 32.9716 389.537 39.0178 387.7 46.3134C387.5 46.515 387.261 46.6561 386.981 46.7367C386.702 46.8173 386.442 46.8576 386.202 46.8576C385.923 46.8576 385.623 46.8374 385.304 46.7971C385.024 46.7165 384.745 46.5956 384.465 46.4344C384.225 46.2731 383.986 46.0514 383.746 45.7693C383.506 45.5274 383.327 45.1848 383.207 44.7414Z" fill="white"/>
<path d="M416.577 34.1607C416.378 35.4102 416.178 36.5993 415.978 37.7279C415.819 38.8565 415.719 39.7635 415.679 40.4487C415.639 41.4564 415.819 42.1819 416.218 42.6253C416.617 43.0687 417.057 43.2904 417.536 43.2904C418.095 43.2904 418.774 43.0082 419.573 42.4439C420.412 41.8796 421.29 41.1742 422.209 40.3278C423.128 39.4813 424.046 38.5542 424.965 37.5465C425.884 36.5388 426.722 35.5916 427.481 34.7048C428.28 33.7778 428.939 32.9716 429.458 32.2864C430.017 31.6012 430.397 31.1578 430.597 30.9562C430.836 30.7144 431.076 30.5733 431.316 30.533C431.595 30.4927 431.815 30.533 431.975 30.6539C432.134 30.7749 432.214 30.9966 432.214 31.319C432.214 31.6415 432.054 32.0445 431.735 32.5282C431.256 33.2941 430.637 34.201 429.878 35.249C429.119 36.2567 428.28 37.3047 427.361 38.393C426.443 39.4813 425.464 40.5495 424.426 41.5975C423.427 42.6455 422.409 43.5725 421.37 44.3787C420.372 45.1848 419.393 45.8298 418.435 46.3134C417.516 46.8374 416.677 47.0994 415.918 47.0994C415.359 47.0994 414.82 46.9382 414.301 46.6157C413.821 46.2933 413.382 45.8701 412.983 45.3461C412.583 44.8221 412.264 44.2376 412.024 43.5927C411.824 42.9478 411.745 42.3028 411.784 41.6579C411.824 41.3758 411.884 40.8921 411.964 40.2068C410.287 42.1013 408.589 43.6128 406.872 44.7414C405.194 45.8298 403.577 46.3739 402.019 46.3739C401.46 46.3739 400.861 46.2328 400.222 45.9507C399.583 45.6685 399.003 45.205 398.484 44.5601C398.005 43.9151 397.605 43.0687 397.286 42.0207C396.966 40.9727 396.847 39.703 396.927 38.2116C397.046 35.8738 397.506 33.6569 398.304 31.5609C399.103 29.4649 400.102 27.651 401.3 26.1193C402.538 24.5473 403.916 23.318 405.434 22.4312C406.992 21.5041 408.549 21.0406 410.107 21.0406C410.786 21.0406 411.405 21.222 411.964 21.5847C412.523 21.9072 413.003 22.3506 413.402 22.9149C413.801 23.4389 414.121 24.0233 414.361 24.6683C414.64 25.3132 414.84 25.9178 414.96 26.4821C415.239 25.3132 415.499 24.1644 415.739 23.0358C415.978 21.9072 416.218 20.839 416.458 19.8313C416.857 18.34 417.276 16.7277 417.716 14.9944C418.115 13.503 418.574 11.79 419.094 9.85521C419.613 7.92044 420.192 5.88491 420.831 3.74861C421.23 3.42615 421.61 3.1843 421.969 3.02307C422.329 2.86184 422.668 2.74092 422.988 2.6603C423.347 2.53938 423.687 2.47892 424.006 2.47892C424.406 2.47892 424.765 2.53938 425.085 2.6603C425.404 2.74092 425.664 3.00292 425.864 3.4463C426.103 3.84938 426.263 4.47414 426.343 5.3206C426.423 6.16706 426.423 7.31583 426.343 8.76691C426.263 10.5404 425.943 12.4752 425.384 14.5712C424.865 16.6672 424.166 18.8438 423.287 21.101C422.409 23.318 421.39 25.555 420.232 27.8123C419.114 30.0292 417.895 32.1453 416.577 34.1607ZM413.043 34.9467C413.202 34.1809 413.342 33.415 413.462 32.6492C413.622 31.8833 413.801 31.0973 414.001 30.2912C413.921 30.3315 413.841 30.3718 413.762 30.4121C413.722 30.4524 413.662 30.4927 413.582 30.533C413.142 30.7346 412.843 30.7346 412.683 30.533C412.523 30.2912 412.444 29.9284 412.444 29.4447C412.444 29.2029 412.424 28.7796 412.384 28.175C412.344 27.5301 412.224 26.8852 412.024 26.2403C411.864 25.555 411.605 24.9706 411.245 24.4869C410.886 23.9629 410.387 23.7009 409.747 23.7009C408.829 23.7009 407.89 24.1846 406.932 25.1519C405.973 26.079 405.074 27.2278 404.236 28.5982C403.397 29.9284 402.698 31.3593 402.139 32.891C401.58 34.4227 401.26 35.7932 401.18 37.0024C401.1 38.9372 401.34 40.3278 401.899 41.1742C402.458 42.0207 403.217 42.4439 404.176 42.4439C404.895 42.4439 405.674 42.1618 406.512 41.5975C407.391 41.0331 408.23 40.3479 409.029 39.5418C409.867 38.7356 410.626 37.9093 411.305 37.0628C412.024 36.2164 412.603 35.511 413.043 34.9467Z" fill="white"/>
<path d="M475.59 35.249C475.031 36.7001 474.392 38.1108 473.673 39.4813C472.954 40.8518 472.155 42.0811 471.276 43.1694C470.398 44.2578 469.459 45.1244 468.46 45.7693C467.462 46.4142 466.384 46.7367 465.225 46.7367C463.348 46.7367 461.93 46.1119 460.972 44.8624C460.013 43.5725 459.354 42.0005 458.994 40.1464C458.435 40.9928 457.836 41.8393 457.197 42.6858C456.558 43.5322 455.879 44.2779 455.16 44.9228C454.441 45.5678 453.702 46.0918 452.943 46.4948C452.185 46.8979 451.426 47.0994 450.667 47.0994C449.628 47.0994 448.75 46.8778 448.031 46.4344C447.312 45.991 446.713 45.3864 446.233 44.6205C445.794 43.8144 445.475 42.9075 445.275 41.8998C445.075 40.8518 444.975 39.7433 444.975 38.5744V37.8488C444.975 36.3575 445.095 34.8258 445.335 33.2538C445.574 31.6818 445.834 30.2307 446.114 28.9006C446.433 27.5704 446.753 26.4216 447.072 25.4543C447.392 24.4466 447.631 23.7815 447.791 23.459C448.071 23.056 448.67 22.673 449.588 22.3103C450.547 21.9072 451.486 21.746 452.404 21.8266C452.844 21.8669 453.063 22.0483 453.063 22.3707C453.103 22.6932 453.063 23.0963 452.943 23.58C452.784 24.2652 452.504 25.293 452.105 26.6635C451.705 28.0339 451.286 29.5253 450.847 31.1376C450.447 32.7499 450.088 34.3421 449.768 35.9141C449.449 37.4861 449.289 38.7961 449.289 39.8441C449.289 41.1339 449.489 42.061 449.888 42.6253C450.287 43.1896 450.906 43.4718 451.745 43.4718C452.744 43.4718 453.842 42.9075 455.04 41.7788C456.279 40.6502 457.477 38.7356 458.635 36.035C458.595 35.7932 458.575 35.5513 458.575 35.3095C458.575 35.0676 458.575 34.8056 458.575 34.5235C458.575 32.7096 458.635 30.9764 458.755 29.3238C458.915 27.6712 459.194 26.2201 459.594 24.9706C460.033 23.721 460.612 22.7335 461.331 22.008C462.09 21.2824 463.068 20.9196 464.267 20.9196C464.746 20.9196 465.145 21.0607 465.465 21.3429C465.784 21.625 465.944 22.0281 465.944 22.5521C465.944 23.842 465.485 25.6759 464.566 28.0541C463.688 30.3919 462.629 32.9716 461.391 35.7932C461.271 35.9544 461.191 36.1156 461.151 36.2768C461.271 37.0427 461.411 37.8488 461.571 38.6953C461.77 39.5418 462.03 40.3278 462.35 41.0533C462.669 41.7385 463.048 42.323 463.488 42.8067C463.927 43.2501 464.446 43.4718 465.046 43.4718C465.924 43.4718 466.723 43.0485 467.442 42.2021C468.201 41.3556 468.86 40.3278 469.419 39.1185C470.018 37.9093 470.537 36.6396 470.977 35.3095C471.416 33.939 471.756 32.7298 471.995 31.6818C471.875 31.2384 471.776 30.8152 471.696 30.4121C471.616 29.9687 471.576 29.4649 471.576 28.9006C471.576 27.651 471.756 26.5829 472.115 25.6961C472.475 24.8093 472.934 24.0838 473.493 23.5195C474.092 22.9149 474.711 22.4715 475.35 22.1893C476.029 21.9072 476.648 21.7661 477.207 21.7661C478.206 21.7661 478.705 22.2095 478.705 23.0963C478.705 23.7412 478.546 24.8698 478.226 26.4821C477.906 28.0541 477.447 29.8478 476.848 31.8632C477.567 32.1856 478.486 32.3469 479.604 32.3469C480.642 32.3469 481.601 32.2259 482.48 31.9841C483.358 31.7019 484.157 31.3593 484.876 30.9562C485.595 30.5532 486.254 30.1098 486.853 29.6261C487.452 29.1424 488.031 28.6789 488.591 28.2355C489.03 27.913 489.389 27.8929 489.669 28.175C489.949 28.4572 489.909 28.9006 489.549 29.5052C489.23 30.0292 488.671 30.6338 487.872 31.319C487.113 32.0042 486.174 32.6693 485.056 33.3142C483.977 33.9189 482.759 34.4429 481.401 34.8862C480.083 35.2893 478.685 35.4908 477.207 35.4908C476.968 35.4908 476.708 35.4707 476.429 35.4304C476.149 35.3901 475.869 35.3296 475.59 35.249Z" fill="white"/>
<path d="M497.218 10.0971C497.098 10.5404 496.858 10.9838 496.499 11.4272C496.179 11.8303 495.8 12.1729 495.361 12.4551C494.961 12.6969 494.542 12.8581 494.102 12.9387C493.663 13.0194 493.304 12.9387 493.024 12.6969C492.185 12.052 491.746 11.3667 491.706 10.6412C491.666 9.87536 491.846 9.16998 492.245 8.52506C492.645 7.83983 493.144 7.27552 493.743 6.83214C494.342 6.34845 494.861 6.0663 495.301 5.98568C495.74 5.90507 496.099 6.00583 496.379 6.28799C496.699 6.52983 496.938 6.87245 497.098 7.31583C497.258 7.71891 497.338 8.18244 497.338 8.70644C497.378 9.23044 497.338 9.69398 497.218 10.0971ZM488.95 22.9753C489.15 22.7335 489.529 22.532 490.088 22.3707C490.648 22.2095 491.227 22.0886 491.826 22.008C492.425 21.887 492.964 21.8266 493.443 21.8266C493.963 21.7863 494.262 21.7863 494.342 21.8266C494.382 21.8669 494.282 22.2901 494.043 23.0963C493.803 23.9024 493.503 24.8496 493.144 25.9379C492.784 27.0263 492.405 28.1549 492.006 29.3238C491.606 30.4524 491.307 31.3795 491.107 32.105C490.907 32.8305 490.668 33.6569 490.388 34.5839C490.108 35.4707 489.849 36.3575 489.609 37.2442C489.409 38.0907 489.27 38.8968 489.19 39.6627C489.11 40.4285 489.17 41.013 489.369 41.4161C489.569 41.8998 489.789 42.2424 490.028 42.4439C490.268 42.6051 490.528 42.6858 490.807 42.6858C491.606 42.6858 492.605 42.2424 493.803 41.3556C495.041 40.4688 496.279 39.4208 497.517 38.2116C498.795 36.9621 499.974 35.7125 501.052 34.463C502.13 33.1732 502.929 32.1453 503.449 31.3795C503.768 30.9764 504.088 30.7144 504.407 30.5935C504.767 30.4726 505.046 30.4927 505.246 30.6539C505.486 30.8152 505.605 31.0772 505.605 31.4399C505.645 31.8027 505.525 32.2259 505.246 32.7096C504.607 33.8382 503.668 35.1885 502.43 36.7605C501.192 38.2922 499.874 39.7836 498.476 41.2347C497.078 42.6455 495.7 43.8547 494.342 44.8624C493.024 45.8701 491.946 46.3941 491.107 46.4344C490.428 46.4747 489.749 46.3538 489.07 46.0716C488.431 45.8298 487.832 45.4871 487.273 45.0438C486.753 44.5601 486.314 44.0159 485.954 43.4113C485.595 42.7664 485.395 42.1013 485.355 41.4161C485.236 40.4084 485.236 39.0379 485.355 37.3047C485.475 35.5312 485.695 33.7375 486.014 31.9236C486.334 30.0695 486.733 28.3161 487.213 26.6635C487.732 25.0109 488.311 23.7815 488.95 22.9753Z" fill="white"/>
<path d="M522.98 30.4121C523.139 30.1702 523.339 30.0292 523.579 29.9889C523.858 29.9082 524.078 29.9284 524.238 30.0493C524.398 30.1702 524.477 30.3718 524.477 30.6539C524.517 30.9361 524.417 31.319 524.178 31.8027C523.379 33.3344 522.321 34.987 521.003 36.7605C519.724 38.5341 518.366 40.2068 516.929 41.7788C515.491 43.3105 514.093 44.5802 512.735 45.5879C511.377 46.5956 510.238 47.0994 509.32 47.0994C508.002 47.0994 506.903 46.8374 506.025 46.3134C505.146 45.7894 504.447 45.1445 503.928 44.3787C503.449 43.6128 503.109 42.7865 502.909 41.8998C502.71 40.9727 502.65 40.1262 502.73 39.3604C502.77 38.7155 502.909 37.5667 503.149 35.9141C503.389 34.2212 503.708 32.2864 504.108 30.1098C504.507 27.8929 504.946 25.5349 505.426 23.0358C505.945 20.4964 506.484 18.0578 507.043 15.72C506.364 15.8006 505.685 15.8812 505.006 15.9618C504.327 16.0424 503.708 16.0827 503.149 16.0827C501.871 16.0827 500.673 15.9417 499.554 15.6595C498.396 15.337 497.537 15.0347 496.978 14.7526C496.659 14.5914 496.519 14.3697 496.559 14.0875C496.599 13.765 496.719 13.4627 496.918 13.1806C497.118 12.8581 497.378 12.5961 497.697 12.3946C497.977 12.1527 498.236 12.0318 498.476 12.0318C499.235 12.1124 500.054 12.1931 500.932 12.2737C501.811 12.314 502.77 12.314 503.808 12.2737C504.567 12.2334 505.286 12.1729 505.965 12.0923C506.684 12.0117 507.383 11.9109 508.062 11.79C508.581 9.85521 509.08 8.18244 509.56 6.77168C510.079 5.3206 510.538 4.31291 510.937 3.74861C511.057 3.54707 511.317 3.38584 511.716 3.26492C512.156 3.10369 512.615 3.00292 513.094 2.96261C513.574 2.88199 514.033 2.88199 514.472 2.96261C514.912 3.00292 515.231 3.14399 515.431 3.38584C515.631 3.7083 515.71 4.53461 515.67 5.86476C515.631 7.19491 515.411 8.88783 515.011 10.9435C516.689 10.9435 518.167 11.0443 519.445 11.2458C520.763 11.4071 521.881 11.6086 522.8 11.8504C523.719 12.052 524.457 12.2737 525.017 12.5155C525.576 12.7171 525.995 12.8581 526.275 12.9387C526.554 13.0194 526.694 13.2209 526.694 13.5434C526.734 13.8658 526.674 14.2084 526.514 14.5712C526.395 14.8937 526.175 15.1758 525.855 15.4177C525.536 15.6595 525.176 15.7401 524.777 15.6595C524.378 15.6192 523.918 15.5386 523.399 15.4177C522.92 15.2967 522.321 15.196 521.602 15.1154C520.923 15.0347 520.104 14.9541 519.145 14.8735C518.187 14.7929 517.068 14.7526 515.79 14.7526C515.551 14.7526 515.271 14.7727 514.952 14.813C514.672 14.813 514.372 14.813 514.053 14.813C513.893 15.458 513.733 16.1029 513.574 16.7478C513.454 17.3524 513.274 17.9973 513.034 18.6826C512.515 20.2949 511.916 22.0483 511.237 23.9427C510.638 25.5953 509.919 27.4898 509.08 29.6261C508.241 31.7624 507.303 34.0398 506.264 36.4582C506.025 38.1915 506.045 39.5216 506.324 40.4487C506.644 41.3355 507.023 41.9804 507.463 42.3835C507.982 42.8268 508.621 43.0687 509.38 43.109C509.979 43.1896 510.698 42.9881 511.537 42.5044C512.415 41.9804 513.314 41.2951 514.233 40.4487C515.151 39.6022 516.07 38.6752 516.989 37.6675C517.947 36.6598 518.826 35.6722 519.625 34.7048C520.423 33.7375 521.122 32.8709 521.721 32.105C522.321 31.2989 522.74 30.7346 522.98 30.4121Z" fill="white"/>
<path d="M550.299 32.4073C550.579 32.0849 550.858 31.9236 551.138 31.9236C551.457 31.8833 551.697 31.9639 551.857 32.1655C552.057 32.3267 552.136 32.5887 552.096 32.9515C552.096 33.3142 551.937 33.7173 551.617 34.1607C550.858 35.2087 549.98 36.297 548.981 37.4256C547.983 38.5139 546.904 39.5821 545.746 40.6301C544.628 41.6781 543.489 42.6656 542.331 43.5927C541.173 44.5198 540.054 45.2856 538.976 45.8902C537.778 46.5754 536.759 46.9181 535.92 46.9181C535.122 46.9181 534.323 46.3941 533.524 45.3461C532.805 44.419 532.446 43.4314 532.446 42.3835C532.486 41.2951 532.725 39.9448 533.165 38.3325C533.444 37.3248 533.824 36.1358 534.303 34.7653C534.822 33.3545 535.221 32.0042 535.501 30.7144C535.821 29.4246 535.92 28.3363 535.801 27.4495C535.681 26.5224 535.162 26.0589 534.243 26.0589C533.604 26.0589 532.905 26.2806 532.146 26.7239C531.427 27.1673 530.688 27.7518 529.929 28.4773C529.21 29.1626 528.511 29.9486 527.832 30.8353C527.153 31.7221 526.554 32.5887 526.035 33.4352C525.716 35.0072 525.396 36.559 525.076 38.0907C524.797 39.3805 524.497 40.7913 524.178 42.323C523.898 43.8144 523.619 45.1445 523.339 46.3134C523.099 46.515 522.84 46.6561 522.56 46.7367C522.281 46.8173 522.021 46.8576 521.781 46.8576C521.502 46.8576 521.222 46.8374 520.943 46.7971C520.623 46.7165 520.324 46.5956 520.044 46.4344C519.804 46.2731 519.565 46.0514 519.325 45.7693C519.085 45.5274 518.906 45.1848 518.786 44.7414C520.583 37.2845 522.001 31.2989 523.04 26.7844C524.078 22.27 524.877 18.8237 525.436 16.4455C526.075 13.624 526.514 11.6691 526.754 10.5807C526.874 9.8149 526.974 9.06921 527.054 8.34367C527.133 7.69875 527.173 7.03368 527.173 6.34845C527.173 5.66322 527.114 5.03845 526.994 4.47414C527.313 4.27261 527.653 4.11138 528.012 3.99045C528.412 3.86953 528.791 3.76876 529.151 3.68815C529.59 3.56722 530.029 3.46645 530.469 3.38584C530.908 3.30522 531.307 3.26492 531.667 3.26492C531.986 3.26492 532.286 3.30522 532.565 3.38584C532.845 3.42615 533.025 3.54707 533.105 3.74861C533.344 3.95015 533.444 4.35322 533.404 4.95784C533.404 5.56245 533.364 6.18722 533.284 6.83214C533.125 7.59798 532.945 8.42429 532.745 9.31106C531.906 12.576 530.968 15.7603 529.929 18.864C528.891 21.9273 527.932 25.2124 527.054 28.7192C527.573 27.913 528.192 27.0867 528.911 26.2403C529.63 25.3938 530.409 24.6279 531.247 23.9427C532.126 23.2172 533.045 22.6327 534.003 22.1893C534.962 21.7056 535.98 21.4638 537.059 21.4638C537.618 21.4638 538.137 21.5646 538.616 21.7661C539.136 21.9273 539.575 22.2296 539.935 22.673C540.334 23.0761 540.633 23.6404 540.833 24.3659C541.033 25.0512 541.113 25.9178 541.073 26.9658C541.073 27.6107 540.993 28.2758 540.833 28.961C540.713 29.6462 540.534 30.4121 540.294 31.2586C540.054 32.0647 539.735 32.9716 539.335 33.9793C538.976 34.987 538.537 36.1559 538.017 37.4861C537.658 38.4132 537.378 39.1992 537.179 39.8441C536.979 40.489 537.019 41.0533 537.298 41.537C537.658 42.1819 538.357 42.3431 539.395 42.0207C540.474 41.6579 542.071 40.6099 544.188 38.8767C544.667 38.4736 545.207 37.9698 545.806 37.3652C546.405 36.7605 546.984 36.1559 547.543 35.5513C548.102 34.9064 548.622 34.3018 549.101 33.7375C549.58 33.1732 549.98 32.7298 550.299 32.4073Z" fill="white"/>
<path d="M595.892 33.677C594.973 35.2087 593.914 36.8008 592.716 38.4535C591.558 40.0658 590.32 41.5571 589.002 42.9276C587.684 44.2578 586.326 45.3662 584.928 46.253C583.53 47.1397 582.132 47.5831 580.734 47.5831C579.336 47.5831 578.318 47.0994 577.679 46.1321C577.079 45.205 576.8 44.157 576.84 42.9881C576.84 42.4641 576.88 42.0005 576.96 41.5975C577.079 41.1944 577.199 40.8316 577.319 40.5091C577.439 40.1867 577.559 39.8642 577.679 39.5418C577.838 39.179 577.978 38.7759 578.098 38.3325C578.258 37.8085 578.258 37.345 578.098 36.9419C577.978 36.4985 577.818 36.1156 577.619 35.7932C577.259 36.1962 576.84 36.559 576.36 36.8815C575.921 37.1636 575.362 37.3047 574.683 37.3047C574.204 37.3047 573.764 37.083 573.365 36.6396C572.966 36.1559 572.766 35.5715 572.766 34.8862C572.766 34.3219 572.886 33.8584 573.125 33.4956C573.405 33.1329 573.704 32.8507 574.024 32.6492C574.383 32.4476 574.743 32.3065 575.102 32.2259C575.462 32.1453 575.761 32.105 576.001 32.105C576.121 32.105 576.36 32.1252 576.72 32.1655C577.119 32.2058 577.539 32.2662 577.978 32.3469C579.416 31.1779 580.434 30.1299 581.034 29.2029C581.673 28.2355 581.732 27.3689 581.213 26.603C580.894 26.079 580.494 25.817 580.015 25.817C579.536 25.7767 579.037 25.8976 578.517 26.1798C577.998 26.4216 577.479 26.7441 576.96 27.1472C576.48 27.5503 576.041 27.9332 575.642 28.2959C574.843 29.1021 573.944 30.0695 572.945 31.1981C571.987 32.2864 571.188 33.1933 570.549 33.9189C570.27 35.1281 569.99 36.3978 569.71 37.7279C569.471 38.8968 569.191 40.227 568.872 41.7184C568.592 43.1694 568.292 44.681 567.973 46.253C567.733 46.3739 567.474 46.4545 567.194 46.4948C566.954 46.5754 566.735 46.6359 566.535 46.6762C566.295 46.7165 566.056 46.7367 565.816 46.7367C565.497 46.7367 565.197 46.7165 564.917 46.6762C564.638 46.6762 564.418 46.5754 564.258 46.3739C564.059 46.2127 563.959 45.9305 563.959 45.5274C563.919 45.1244 564.019 44.5601 564.258 43.8345C564.578 42.7865 564.977 41.3959 565.457 39.6627C565.936 37.8892 566.435 35.9544 566.954 33.8584C567.474 31.7624 567.993 29.5858 568.512 27.3286C569.071 25.031 569.591 22.8544 570.07 20.7987C570.549 18.7027 570.949 16.8284 571.268 15.1758C571.628 13.4829 571.887 12.1527 572.047 11.1854C572.167 10.1374 572.286 9.12967 572.406 8.16229C572.486 7.35614 572.526 6.57014 572.526 5.8043C572.566 4.99814 572.526 4.39353 572.406 3.99045C572.606 3.78892 572.886 3.60753 573.245 3.4463C573.605 3.28507 574.004 3.16415 574.443 3.08353C574.883 2.96261 575.402 2.86184 576.001 2.78122C576.68 2.70061 577.239 2.68046 577.679 2.72076C578.158 2.76107 578.497 2.96261 578.697 3.32538C578.937 3.72845 578.977 4.41368 578.817 5.38107C578.697 6.30814 578.417 7.61814 577.978 9.31106C577.419 11.4877 576.84 13.4829 576.241 15.2967C575.681 17.0703 575.122 18.743 574.563 20.315C574.044 21.887 573.525 23.4187 573.005 24.9101C572.526 26.3612 572.087 27.8526 571.687 29.3842C572.486 28.2153 573.485 26.9859 574.683 25.6961C575.881 24.3659 577.239 23.2776 578.757 22.4312C580.355 21.5847 581.673 21.1615 582.711 21.1615C583.989 21.1615 584.908 21.6049 585.467 22.4916C586.026 23.3381 586.286 24.3458 586.246 25.5147C586.206 26.4418 585.966 27.3084 585.527 28.1146C585.128 28.8804 584.628 29.6059 584.029 30.2912C583.43 30.9361 582.791 31.5004 582.112 31.9841C581.433 32.4678 580.854 32.8709 580.375 33.1933C580.934 33.5158 581.413 33.9592 581.812 34.5235C582.252 35.0475 582.451 35.7125 582.411 36.5187C582.372 37.607 582.152 38.5744 581.752 39.4208C581.393 40.227 581.213 40.9727 581.213 41.6579C581.253 42.1819 581.353 42.5648 581.513 42.8067C581.713 43.0485 582.112 43.1694 582.711 43.1694C583.789 43.1694 584.908 42.7059 586.066 41.7788C587.264 40.8518 588.383 39.7836 589.421 38.5744C590.46 37.3652 591.418 36.1761 592.297 35.0072C593.176 33.7979 593.855 32.9112 594.334 32.3469C595.013 31.6213 595.572 31.4399 596.011 31.8027C596.491 32.1252 596.451 32.7499 595.892 33.677Z" fill="white"/>
<path d="M609.971 47.2204C609.052 47.2204 608.253 47.039 607.574 46.6762C606.935 46.3538 606.416 45.9104 606.016 45.3461C605.617 44.7818 605.357 44.1368 605.238 43.4113C605.118 42.6455 605.158 41.8393 605.357 40.9928C605.477 40.4285 605.677 39.6828 605.957 38.7558C606.236 37.7884 606.516 36.7605 606.795 35.6722C607.115 34.5436 607.394 33.4352 607.634 32.3469C607.914 31.2182 608.093 30.2106 608.173 29.3238C608.253 28.3967 608.213 27.651 608.053 27.0867C607.894 26.4821 607.554 26.1798 607.035 26.1798C606.396 26.1798 605.737 26.4015 605.058 26.8449C604.379 27.2479 603.68 27.8123 602.961 28.5378C602.282 29.2633 601.583 30.1098 600.864 31.0772C600.185 32.0042 599.506 32.9716 598.827 33.9793C598.468 35.3498 598.168 36.559 597.929 37.607C597.689 38.6147 597.469 39.5418 597.269 40.3882C597.11 41.1944 596.95 41.9199 596.79 42.5648C596.63 43.1695 596.491 43.7539 596.371 44.3182C596.251 44.7213 595.891 45.1244 595.292 45.5274C594.693 45.8902 594.054 46.1925 593.375 46.4344C592.696 46.6762 592.117 46.7971 591.638 46.7971C591.119 46.7971 590.899 46.6157 590.979 46.253C591.019 46.0111 591.159 45.467 591.398 44.6205C591.598 43.7741 591.857 42.7865 592.177 41.6579C592.457 40.489 592.756 39.2596 593.076 37.9698C593.395 36.6799 593.695 35.4505 593.974 34.2816C594.174 33.3545 594.394 32.3267 594.633 31.1981C594.833 30.2307 595.073 29.1021 595.352 27.8123C595.672 26.5224 596.031 25.1116 596.431 23.58C596.71 23.3381 596.99 23.1567 597.269 23.0358C597.589 22.8746 597.909 22.7536 598.228 22.673C598.548 22.5521 598.887 22.4715 599.247 22.4312C599.566 22.4312 599.886 22.4513 600.205 22.4916C600.485 22.532 600.764 22.6126 601.044 22.7335C601.363 22.8141 601.643 22.9552 601.883 23.1567C601.763 23.4389 601.623 23.842 601.463 24.3659C601.303 24.8496 601.144 25.3736 600.984 25.9379C600.824 26.5829 600.625 27.2479 600.385 27.9332C600.904 27.2076 601.483 26.4821 602.122 25.7566C602.801 24.9907 603.52 24.3055 604.279 23.7009C605.078 23.0963 605.917 22.6126 606.795 22.2498C607.674 21.8467 608.573 21.6452 609.491 21.6452C610.25 21.6452 610.929 21.8669 611.528 22.3103C612.127 22.7536 612.587 23.3784 612.906 24.1846C613.266 24.9504 613.465 25.8775 613.505 26.9658C613.585 28.0541 613.445 29.2432 613.086 30.533L612.427 33.1933C612.227 34.0398 611.968 35.0475 611.648 36.2164C611.369 37.345 611.009 38.5945 610.57 39.965C610.33 40.8518 610.23 41.6176 610.27 42.2625C610.35 42.9075 610.75 43.2299 611.468 43.2299C612.187 43.2299 613.086 42.7865 614.164 41.8998C615.283 41.013 616.401 39.9448 617.519 38.6953C618.638 37.4458 619.696 36.1761 620.695 34.8862C621.693 33.5561 622.452 32.4879 622.971 31.6818C623.331 31.1578 623.67 30.8152 623.99 30.6539C624.309 30.4927 624.549 30.4726 624.709 30.5935C624.909 30.7144 625.008 30.9966 625.008 31.4399C625.008 31.843 624.849 32.367 624.529 33.0119C624.249 33.5762 623.81 34.3219 623.211 35.249C622.652 36.1761 621.973 37.1636 621.174 38.2116C620.375 39.2596 619.516 40.3278 618.598 41.4161C617.679 42.4641 616.721 43.4314 615.722 44.3182C614.724 45.1647 613.725 45.8499 612.727 46.3739C611.768 46.9382 610.849 47.2204 609.971 47.2204Z" fill="white"/>
<path d="M638.249 36.0955C637.849 37.6272 637.31 39.0581 636.631 40.3882C635.952 41.7184 635.133 42.8671 634.175 43.8345C633.256 44.8019 632.198 45.5476 630.999 46.0716C629.841 46.6359 628.563 46.9181 627.165 46.9181C625.528 46.9181 624.229 46.5553 623.271 45.8298C622.352 45.1445 621.653 44.2779 621.174 43.2299C620.735 42.1819 620.475 41.0331 620.395 39.7836C620.275 38.5341 620.215 37.3652 620.215 36.2768C620.215 35.511 620.315 34.6645 620.515 33.7375C620.675 32.8104 620.914 31.8632 621.234 30.8958C621.553 29.9284 621.953 28.961 622.432 27.9936C622.951 27.0263 623.551 26.1395 624.229 25.3333C624.469 24.6481 624.829 24.0435 625.308 23.5195C625.827 22.9955 626.406 22.5723 627.045 22.2498C627.724 21.887 628.443 21.625 629.202 21.4638C629.961 21.2623 630.7 21.1615 631.419 21.1615C631.539 21.1615 631.639 21.1816 631.718 21.222C631.838 21.2623 631.958 21.3026 632.078 21.3429C632.597 21.3832 633.236 21.5847 633.995 21.9475C634.794 22.3103 635.553 22.8544 636.272 23.58C637.031 24.3055 637.67 25.2326 638.189 26.3612C638.708 27.4495 638.968 28.7796 638.968 30.3516C638.968 30.6741 638.948 31.0772 638.908 31.5609C638.868 32.0042 638.828 32.3872 638.788 32.7096C639.707 32.3469 640.665 31.9035 641.664 31.3795C642.662 30.8555 643.621 30.3113 644.539 29.747C645.498 29.1424 646.377 28.5378 647.176 27.9332C647.974 27.3286 648.613 26.7844 649.093 26.3007C649.492 25.9379 649.832 25.7364 650.111 25.6961C650.391 25.6558 650.59 25.7364 650.71 25.9379C650.83 26.1395 650.85 26.4216 650.77 26.7844C650.69 27.1472 650.471 27.5503 650.111 27.9936C649.911 28.2355 649.392 28.7192 648.553 29.4447C647.755 30.1702 646.796 30.9562 645.678 31.8027C644.559 32.6492 643.341 33.4755 642.023 34.2816C640.705 35.0878 639.447 35.6924 638.249 36.0955ZM628.124 26.9053C628.004 27.2681 627.944 27.651 627.944 28.0541C627.944 28.699 627.984 29.3842 628.064 30.1098C628.144 30.795 628.343 31.4198 628.663 31.9841C628.982 32.5484 629.482 33.0321 630.161 33.4352C630.88 33.7979 631.858 33.9793 633.096 33.9793C633.296 33.9793 633.496 33.9793 633.695 33.9793C633.895 33.939 634.095 33.8987 634.295 33.8584C634.414 33.3344 634.514 32.8709 634.594 32.4678C634.714 32.0244 634.774 31.6415 634.774 31.319C634.854 30.5532 634.854 29.7672 634.774 28.961C634.694 28.1549 634.534 27.4293 634.295 26.7844C634.095 26.0992 633.815 25.555 633.456 25.1519C633.136 24.7086 632.737 24.4869 632.258 24.4869C631.499 24.4869 630.76 24.7086 630.041 25.1519C629.362 25.555 628.723 26.1395 628.124 26.9053ZM624.289 37.5465C624.289 38.2721 624.329 38.9976 624.409 39.7231C624.489 40.4084 624.649 41.0331 624.889 41.5975C625.128 42.1215 625.448 42.5648 625.847 42.9276C626.247 43.2501 626.766 43.4113 627.405 43.4113C628.124 43.4113 628.783 43.2501 629.382 42.9276C629.981 42.5648 630.52 42.1215 630.999 41.5975C631.479 41.0331 631.898 40.4084 632.258 39.7231C632.657 38.9976 632.997 38.2519 633.276 37.4861C632.997 37.5264 632.717 37.5667 632.437 37.607C632.198 37.607 631.918 37.607 631.599 37.607C630.081 37.607 628.763 37.1636 627.644 36.2768C626.566 35.3498 625.727 34.1809 625.128 32.7701C624.889 33.6165 624.689 34.4429 624.529 35.249C624.369 36.0552 624.289 36.821 624.289 37.5465Z" fill="white"/>
<path d="M675.873 35.249C675.314 36.7001 674.675 38.1108 673.956 39.4813C673.237 40.8518 672.438 42.0811 671.559 43.1694C670.681 44.2578 669.742 45.1244 668.744 45.7693C667.745 46.4142 666.667 46.7367 665.508 46.7367C663.631 46.7367 662.213 46.1119 661.255 44.8624C660.296 43.5725 659.637 42.0005 659.278 40.1464C658.718 40.9928 658.119 41.8393 657.48 42.6858C656.841 43.5322 656.162 44.2779 655.443 44.9228C654.724 45.5678 653.985 46.0918 653.227 46.4948C652.468 46.8979 651.709 47.0994 650.95 47.0994C649.911 47.0994 649.033 46.8778 648.314 46.4344C647.595 45.991 646.996 45.3864 646.516 44.6205C646.077 43.8144 645.758 42.9075 645.558 41.8998C645.358 40.8518 645.258 39.7433 645.258 38.5744V37.8488C645.258 36.3575 645.378 34.8258 645.618 33.2538C645.857 31.6818 646.117 30.2307 646.397 28.9006C646.716 27.5704 647.036 26.4216 647.355 25.4543C647.675 24.4466 647.914 23.7815 648.074 23.459C648.354 23.056 648.953 22.673 649.871 22.3103C650.83 21.9072 651.769 21.746 652.687 21.8266C653.127 21.8669 653.346 22.0483 653.346 22.3707C653.386 22.6932 653.346 23.0963 653.227 23.58C653.067 24.2652 652.787 25.293 652.388 26.6635C651.988 28.0339 651.569 29.5253 651.13 31.1376C650.73 32.7499 650.371 34.3421 650.051 35.9141C649.732 37.4861 649.572 38.7961 649.572 39.8441C649.572 41.1339 649.772 42.061 650.171 42.6253C650.57 43.1896 651.19 43.4718 652.028 43.4718C653.027 43.4718 654.125 42.9075 655.323 41.7788C656.562 40.6502 657.76 38.7356 658.918 36.035C658.878 35.7932 658.858 35.5513 658.858 35.3095C658.858 35.0676 658.858 34.8056 658.858 34.5235C658.858 32.7096 658.918 30.9764 659.038 29.3238C659.198 27.6712 659.477 26.2201 659.877 24.9706C660.316 23.721 660.895 22.7335 661.614 22.008C662.373 21.2824 663.352 20.9196 664.55 20.9196C665.029 20.9196 665.428 21.0607 665.748 21.3429C666.068 21.625 666.227 22.0281 666.227 22.5521C666.227 23.842 665.768 25.6759 664.849 28.0541C663.971 30.3919 662.912 32.9716 661.674 35.7932C661.554 35.9544 661.474 36.1156 661.434 36.2768C661.554 37.0427 661.694 37.8488 661.854 38.6953C662.053 39.5418 662.313 40.3278 662.633 41.0533C662.952 41.7385 663.332 42.323 663.771 42.8067C664.21 43.2501 664.729 43.4718 665.329 43.4718C666.207 43.4718 667.006 43.0485 667.725 42.2021C668.484 41.3556 669.143 40.3278 669.702 39.1185C670.301 37.9093 670.82 36.6396 671.26 35.3095C671.699 33.939 672.039 32.7298 672.278 31.6818C672.158 31.2384 672.059 30.8152 671.979 30.4121C671.899 29.9687 671.859 29.4649 671.859 28.9006C671.859 27.651 672.039 26.5829 672.398 25.6961C672.758 24.8093 673.217 24.0838 673.776 23.5195C674.375 22.9149 674.994 22.4715 675.633 22.1893C676.312 21.9072 676.931 21.7661 677.491 21.7661C678.489 21.7661 678.988 22.2095 678.988 23.0963C678.988 23.7412 678.829 24.8698 678.509 26.4821C678.19 28.0541 677.73 29.8478 677.131 31.8632C677.85 32.1856 678.769 32.3469 679.887 32.3469C680.925 32.3469 681.884 32.2259 682.763 31.9841C683.641 31.7019 684.44 31.3593 685.159 30.9562C685.878 30.5532 686.537 30.1098 687.136 29.6261C687.735 29.1424 688.315 28.6789 688.874 28.2355C689.313 27.913 689.672 27.8929 689.952 28.175C690.232 28.4572 690.192 28.9006 689.832 29.5052C689.513 30.0292 688.954 30.6338 688.155 31.319C687.396 32.0042 686.457 32.6693 685.339 33.3142C684.26 33.9189 683.042 34.4429 681.684 34.8862C680.366 35.2893 678.968 35.4908 677.491 35.4908C677.251 35.4908 676.991 35.4707 676.712 35.4304C676.432 35.3901 676.153 35.3296 675.873 35.249Z" fill="white"/>
<path d="M683.422 44.7414C685.179 37.2845 686.577 31.2989 687.616 26.7844C688.694 22.27 689.513 18.8237 690.072 16.4455C690.711 13.624 691.15 11.6691 691.39 10.5807C691.51 9.8149 691.61 9.06921 691.689 8.34367C691.769 7.69875 691.809 7.03368 691.809 6.34845C691.809 5.66322 691.749 5.03845 691.63 4.47414C691.949 4.27261 692.289 4.11138 692.648 3.99045C693.047 3.86953 693.427 3.76876 693.786 3.68815C694.226 3.56722 694.665 3.46645 695.104 3.38584C695.544 3.30522 695.943 3.26492 696.303 3.26492C696.622 3.26492 696.922 3.30522 697.201 3.38584C697.481 3.42615 697.661 3.54707 697.74 3.74861C697.98 3.95015 698.08 4.35322 698.04 4.95784C698.04 5.56245 698 6.18722 697.92 6.83214C697.76 7.59798 697.581 8.42429 697.381 9.31106C696.902 11.0443 696.243 13.5434 695.404 16.8083C694.685 19.5895 693.706 23.3784 692.468 28.175C691.27 32.9716 689.752 39.0178 687.915 46.3134C687.715 46.515 687.476 46.6561 687.196 46.7367C686.917 46.8173 686.657 46.8576 686.417 46.8576C686.138 46.8576 685.838 46.8374 685.519 46.7971C685.239 46.7165 684.959 46.5956 684.68 46.4344C684.44 46.2731 684.201 46.0514 683.961 45.7693C683.721 45.5274 683.542 45.1848 683.422 44.7414Z" fill="white"/>
<path d="M724.88 33.1329C723.682 34.9064 722.324 36.6396 720.806 38.3325C719.289 39.9851 717.671 41.4765 715.953 42.8067C714.276 44.0965 712.539 45.1445 710.741 45.9507C708.984 46.7568 707.266 47.1599 705.589 47.1599C704.71 47.1599 703.752 46.9382 702.713 46.4948C701.715 46.0918 700.796 45.4468 699.957 44.5601C699.118 43.6733 698.439 42.5245 697.92 41.1138C697.441 39.703 697.301 37.9899 697.501 35.9745C697.661 34.3219 698.16 32.5887 698.999 30.7749C699.877 28.9207 700.936 27.2278 702.174 25.6961C703.452 24.1644 704.87 22.8947 706.428 21.887C708.025 20.8793 709.623 20.3755 711.221 20.3755C712.738 20.3755 713.837 20.7584 714.516 21.5243C715.195 22.2901 715.494 23.2373 715.414 24.3659C715.294 25.6155 714.935 26.7643 714.336 27.8123C713.777 28.8602 713.098 29.8075 712.299 30.6539C711.5 31.5004 710.641 32.2662 709.723 32.9515C708.844 33.6367 708.005 34.2615 707.206 34.8258C706.328 35.4304 705.489 36.0149 704.69 36.5792C703.891 37.1032 703.192 37.5868 702.593 38.0302C702.633 39.0379 702.813 39.8844 703.133 40.5696C703.452 41.2548 703.852 41.8191 704.331 42.2625C704.81 42.6656 705.349 42.9679 705.948 43.1694C706.587 43.3307 707.226 43.4113 707.866 43.4113C709.224 43.4113 710.641 42.9881 712.119 42.1416C713.597 41.2548 715.035 40.2068 716.433 38.9976C717.871 37.7481 719.189 36.4582 720.387 35.1281C721.625 33.7979 722.644 32.6492 723.442 31.6818C723.722 31.3593 724.002 31.1779 724.281 31.1376C724.601 31.057 724.84 31.0973 725 31.2586C725.2 31.3795 725.3 31.6213 725.3 31.9841C725.3 32.3065 725.16 32.6895 724.88 33.1329ZM709.543 23.8218C709.064 23.8218 708.485 24.0636 707.806 24.5473C707.167 25.031 706.528 25.7364 705.888 26.6635C705.249 27.5503 704.65 28.6587 704.091 29.9889C703.532 31.2787 703.113 32.7701 702.833 34.463C703.312 34.1002 703.831 33.7375 704.391 33.3747C704.95 32.9716 705.509 32.5484 706.068 32.105C707.786 30.7749 708.984 29.6059 709.663 28.5982C710.342 27.5906 710.721 26.7239 710.801 25.9984C710.881 25.2326 710.801 24.6884 710.561 24.3659C710.322 24.0032 709.982 23.8218 709.543 23.8218Z" fill="white"/>
<path d="M739.618 34.1607C739.419 35.4102 739.219 36.5993 739.019 37.7279C738.86 38.8565 738.76 39.7635 738.72 40.4487C738.68 41.4564 738.86 42.1819 739.259 42.6253C739.658 43.0687 740.098 43.2904 740.577 43.2904C741.136 43.2904 741.815 43.0082 742.614 42.4439C743.453 41.8796 744.331 41.1742 745.25 40.3278C746.169 39.4813 747.087 38.5542 748.006 37.5465C748.925 36.5388 749.763 35.5916 750.522 34.7048C751.321 33.7778 751.98 32.9716 752.499 32.2864C753.059 31.6012 753.438 31.1578 753.638 30.9562C753.877 30.7144 754.117 30.5733 754.357 30.533C754.636 30.4927 754.856 30.533 755.016 30.6539C755.175 30.7749 755.255 30.9966 755.255 31.319C755.255 31.6415 755.095 32.0445 754.776 32.5282C754.297 33.2941 753.678 34.201 752.919 35.249C752.16 36.2567 751.321 37.3047 750.402 38.393C749.484 39.4813 748.505 40.5495 747.467 41.5975C746.468 42.6455 745.45 43.5725 744.411 44.3787C743.413 45.1848 742.434 45.8298 741.476 46.3134C740.557 46.8374 739.718 47.0994 738.959 47.0994C738.4 47.0994 737.861 46.9382 737.342 46.6157C736.862 46.2933 736.423 45.8701 736.024 45.3461C735.624 44.8221 735.305 44.2376 735.065 43.5927C734.865 42.9478 734.786 42.3028 734.826 41.6579C734.865 41.3758 734.925 40.8921 735.005 40.2068C733.328 42.1013 731.63 43.6128 729.913 44.7414C728.235 45.8298 726.618 46.3739 725.06 46.3739C724.501 46.3739 723.902 46.2328 723.263 45.9507C722.624 45.6685 722.044 45.205 721.525 44.5601C721.046 43.9151 720.647 43.0687 720.327 42.0207C720.008 40.9727 719.888 39.703 719.968 38.2116C720.087 35.8738 720.547 33.6569 721.346 31.5609C722.144 29.4649 723.143 27.651 724.341 26.1193C725.579 24.5473 726.957 23.318 728.475 22.4312C730.033 21.5041 731.59 21.0406 733.148 21.0406C733.827 21.0406 734.446 21.222 735.005 21.5847C735.564 21.9072 736.044 22.3506 736.443 22.9149C736.843 23.4389 737.162 24.0233 737.402 24.6683C737.681 25.3132 737.881 25.9178 738.001 26.4821C738.28 25.3132 738.54 24.1644 738.78 23.0358C739.019 21.9072 739.259 20.839 739.499 19.8313C739.898 18.34 740.317 16.7277 740.757 14.9944C741.156 13.503 741.615 11.79 742.135 9.85521C742.654 7.92044 743.233 5.88491 743.872 3.74861C744.271 3.42615 744.651 3.1843 745.01 3.02307C745.37 2.86184 745.709 2.74092 746.029 2.6603C746.388 2.53938 746.728 2.47892 747.047 2.47892C747.447 2.47892 747.806 2.53938 748.126 2.6603C748.445 2.74092 748.705 3.00292 748.905 3.4463C749.144 3.84938 749.304 4.47414 749.384 5.3206C749.464 6.16706 749.464 7.31583 749.384 8.76691C749.304 10.5404 748.985 12.4752 748.425 14.5712C747.906 16.6672 747.207 18.8438 746.328 21.101C745.45 23.318 744.431 25.555 743.273 27.8123C742.155 30.0292 740.936 32.1453 739.618 34.1607ZM736.084 34.9467C736.243 34.1809 736.383 33.415 736.503 32.6492C736.663 31.8833 736.843 31.0973 737.042 30.2912C736.962 30.3315 736.882 30.3718 736.803 30.4121C736.763 30.4524 736.703 30.4927 736.623 30.533C736.183 30.7346 735.884 30.7346 735.724 30.533C735.564 30.2912 735.485 29.9284 735.485 29.4447C735.485 29.2029 735.465 28.7796 735.425 28.175C735.385 27.5301 735.265 26.8852 735.065 26.2403C734.905 25.555 734.646 24.9706 734.286 24.4869C733.927 23.9629 733.428 23.7009 732.789 23.7009C731.87 23.7009 730.931 24.1846 729.973 25.1519C729.014 26.079 728.115 27.2278 727.277 28.5982C726.438 29.9284 725.739 31.3593 725.18 32.891C724.621 34.4227 724.301 35.7932 724.221 37.0024C724.141 38.9372 724.381 40.3278 724.94 41.1742C725.499 42.0207 726.258 42.4439 727.217 42.4439C727.936 42.4439 728.715 42.1618 729.553 41.5975C730.432 41.0331 731.271 40.3479 732.07 39.5418C732.908 38.7356 733.667 37.9093 734.346 37.0628C735.065 36.2164 735.644 35.511 736.084 34.9467Z" fill="white"/>
<path d="M766.039 54.3548C765.84 55.3222 765.58 56.5314 765.26 57.9825C764.981 59.4336 764.641 60.9653 764.242 62.5776C763.882 64.1899 763.443 65.782 762.924 67.354C762.445 68.9663 761.905 70.3972 761.306 71.6468C760.707 72.9366 760.048 73.9846 759.329 74.7908C758.61 75.5969 757.811 76 756.933 76C755.615 76 754.476 75.5969 753.518 74.7908C752.599 74.0249 751.82 73.0374 751.181 71.8282C750.542 70.6592 750.083 69.3895 749.803 68.0191C749.484 66.6486 749.324 65.3789 749.324 64.21C749.324 62.5977 749.464 61.2474 749.743 60.1591C750.023 59.1111 750.502 58.1034 751.181 57.136C751.9 56.1687 752.859 55.1408 754.057 54.0525C755.255 52.9642 756.793 51.6139 758.67 50.0016C759.589 49.1954 760.468 48.4296 761.306 47.7041C762.145 46.9785 762.944 46.3134 763.703 45.7088C763.902 44.9027 764.082 44.157 764.242 43.4718C764.442 42.7462 764.601 42.1013 764.721 41.537C763.683 42.9478 762.425 44.1368 760.947 45.1042C759.509 46.0716 757.851 46.5553 755.974 46.5553C754.257 46.5553 752.859 45.7894 751.78 44.2578C750.742 42.6858 750.223 40.3882 750.223 37.3652C750.223 35.8738 750.502 34.1607 751.061 32.2259C751.621 30.2912 752.419 28.4773 753.458 26.7844C754.496 25.0915 755.774 23.6606 757.292 22.4916C758.81 21.3227 760.507 20.7383 762.385 20.7383C763.263 20.7383 764.022 20.96 764.661 21.4033C765.3 21.8467 765.84 22.411 766.279 23.0963C766.718 23.7412 767.058 24.4466 767.297 25.2124C767.537 25.9379 767.717 26.6232 767.837 27.2681C767.916 27.0263 767.976 26.7844 768.016 26.5426C768.056 26.2604 768.116 26.0186 768.196 25.817C768.595 24.4466 769.035 23.5195 769.514 23.0358C770.033 22.5118 770.792 22.2498 771.791 22.2498C772.35 22.2498 772.809 22.3506 773.169 22.5521C773.568 22.7536 773.768 22.935 773.768 23.0963C773.568 23.5396 773.408 23.8823 773.289 24.1241C773.169 24.3659 773.049 24.6279 772.929 24.9101C772.809 25.1519 772.689 25.4744 772.57 25.8775C772.45 26.2806 772.29 26.865 772.09 27.6309C772.01 27.913 771.851 28.5781 771.611 29.6261C771.411 30.6338 771.132 31.843 770.772 33.2538C770.453 34.6645 770.093 36.2164 769.694 37.9093C769.334 39.6022 768.975 41.2548 768.615 42.8671C769.734 42.2222 770.892 41.4362 772.09 40.5091C773.289 39.5821 774.427 38.6348 775.505 37.6675C776.584 36.7001 777.542 35.7932 778.381 34.9467C779.22 34.0599 779.839 33.3344 780.238 32.7701C780.558 32.2864 780.917 31.9438 781.317 31.7422C781.716 31.5407 782.056 31.4802 782.335 31.5609C782.655 31.6012 782.834 31.7826 782.874 32.105C782.954 32.3872 782.834 32.7902 782.515 33.3142C781.596 34.8056 780.478 36.2567 779.16 37.6675C777.842 39.0379 776.484 40.3278 775.086 41.537C773.728 42.7059 772.39 43.7539 771.072 44.681C769.794 45.5678 768.695 46.2933 767.777 46.8576C767.377 48.6714 767.038 50.1427 766.758 51.2713C766.479 52.3999 766.239 53.4277 766.039 54.3548ZM758.49 42.4439C759.329 42.4439 760.108 42.2222 760.827 41.7788C761.586 41.3355 762.265 40.8316 762.864 40.2673C763.463 39.6627 763.962 39.0581 764.362 38.4535C764.761 37.8488 765.061 37.3652 765.26 37.0024C765.42 36.6396 765.6 36.1559 765.8 35.5513C766.039 34.9467 766.219 34.3622 766.339 33.7979C766.459 33.2336 766.499 32.7298 766.459 32.2864C766.459 31.843 766.319 31.6012 766.039 31.5609C765.8 31.5206 765.6 31.3593 765.44 31.0772C765.32 30.795 765.22 30.4726 765.141 30.1098C765.061 29.747 765.001 29.3842 764.961 29.0215C764.961 28.6587 764.941 28.3363 764.901 28.0541C764.701 26.6433 764.362 25.6155 763.882 24.9706C763.403 24.3256 762.864 24.0032 762.265 24.0032C761.266 24.0032 760.308 24.4063 759.389 25.2124C758.51 26.0186 757.712 27.0666 756.993 28.3564C756.314 29.6059 755.774 30.9965 755.375 32.5282C754.976 34.0196 754.776 35.4505 754.776 36.821C754.776 38.5139 755.016 39.8844 755.495 40.9324C755.974 41.9401 756.973 42.4439 758.49 42.4439ZM755.735 70.498C756.533 70.498 757.172 69.8934 757.652 68.6842C758.171 67.5153 758.71 65.9029 759.269 63.8473C759.389 63.3636 759.549 62.6582 759.749 61.7311C759.988 60.8443 760.248 59.8165 760.527 58.6476C760.847 57.4786 761.167 56.209 761.486 54.8385C761.806 53.5084 762.145 52.158 762.505 50.7876C762.185 51.0697 761.846 51.3519 761.486 51.634C761.167 51.9565 760.827 52.3193 760.468 52.7224C759.589 53.5688 758.73 54.375 757.891 55.1408C757.093 55.947 756.374 56.7733 755.735 57.6197C755.096 58.5065 754.576 59.4537 754.177 60.4614C753.817 61.4691 753.638 62.638 753.638 63.9682C753.638 65.2983 753.678 66.3866 753.757 67.2331C753.877 68.0796 754.017 68.7446 754.177 69.2283C754.377 69.712 754.596 70.0345 754.836 70.1957C755.115 70.3972 755.415 70.498 755.735 70.498Z" fill="white"/>
<path d="M805.581 33.1329C804.382 34.9064 803.024 36.6396 801.507 38.3325C799.989 39.9851 798.371 41.4765 796.654 42.8067C794.976 44.0965 793.239 45.1445 791.442 45.9507C789.684 46.7568 787.967 47.1599 786.289 47.1599C785.411 47.1599 784.452 46.9382 783.414 46.4948C782.415 46.0918 781.496 45.4468 780.658 44.5601C779.819 43.6733 779.14 42.5245 778.621 41.1138C778.141 39.703 778.002 37.9899 778.201 35.9745C778.361 34.3219 778.86 32.5887 779.699 30.7749C780.578 28.9207 781.636 27.2278 782.874 25.6961C784.152 24.1644 785.57 22.8947 787.128 21.887C788.726 20.8793 790.323 20.3755 791.921 20.3755C793.439 20.3755 794.537 20.7584 795.216 21.5243C795.895 22.2901 796.195 23.2373 796.115 24.3659C795.995 25.6155 795.635 26.7643 795.036 27.8123C794.477 28.8602 793.798 29.8075 792.999 30.6539C792.2 31.5004 791.342 32.2662 790.423 32.9515C789.544 33.6367 788.706 34.2615 787.907 34.8258C787.028 35.4304 786.189 36.0149 785.391 36.5792C784.592 37.1032 783.893 37.5868 783.294 38.0302C783.334 39.0379 783.513 39.8844 783.833 40.5696C784.152 41.2548 784.552 41.8191 785.031 42.2625C785.51 42.6656 786.05 42.9679 786.649 43.1694C787.288 43.3307 787.927 43.4113 788.566 43.4113C789.924 43.4113 791.342 42.9881 792.82 42.1416C794.297 41.2548 795.735 40.2068 797.133 38.9976C798.571 37.7481 799.889 36.4582 801.087 35.1281C802.326 33.7979 803.344 32.6492 804.143 31.6818C804.422 31.3593 804.702 31.1779 804.982 31.1376C805.301 31.057 805.541 31.0973 805.7 31.2586C805.9 31.3795 806 31.6213 806 31.9841C806 32.3065 805.86 32.6895 805.581 33.1329ZM790.243 23.8218C789.764 23.8218 789.185 24.0636 788.506 24.5473C787.867 25.031 787.228 25.7364 786.589 26.6635C785.95 27.5503 785.351 28.6587 784.791 29.9889C784.232 31.2787 783.813 32.7701 783.533 34.463C784.013 34.1002 784.532 33.7375 785.091 33.3747C785.65 32.9716 786.209 32.5484 786.769 32.105C788.486 30.7749 789.684 29.6059 790.363 28.5982C791.042 27.5906 791.422 26.7239 791.501 25.9984C791.581 25.2326 791.501 24.6884 791.262 24.3659C791.022 24.0032 790.683 23.8218 790.243 23.8218Z" fill="white"/>
</svg>
