<svg width="240" height="48" viewBox="0 0 240 48" fill="none" xmlns="http://www.w3.org/2000/svg">
<path d="M122 0C108.745 0 98 10.745 98 24C98 37.255 108.745 48 122 48C135.255 48 146 37.255 146 24C146 10.745 135.255 0 122 0ZM127.685 16.585H124.078C123.65 16.585 123.175 17.1475 123.175 17.895V20.5H127.688L127.005 24.215H123.175V35.3675H118.918V24.215H115.055V20.5H118.918V18.315C118.918 15.18 121.093 12.6325 124.078 12.6325H127.685V16.585Z" fill="#004897"/>
<path d="M223.5 24C223.5 25.9891 222.71 27.8968 221.303 29.3033C219.897 30.7098 217.989 31.5 216 31.5C214.011 31.5 212.103 30.7098 210.697 29.3033C209.29 27.8968 208.5 25.9891 208.5 24C208.5 23.5725 208.545 23.155 208.622 22.75H206V32.7425C206 33.4375 206.562 34 207.257 34H224.745C225.078 33.9993 225.397 33.8666 225.633 33.6308C225.868 33.3951 226 33.0756 226 32.7425V22.75H223.378C223.455 23.155 223.5 23.5725 223.5 24ZM216 29C216.657 28.9998 217.307 28.8703 217.914 28.6188C218.521 28.3673 219.072 27.9988 219.536 27.5343C220 27.0698 220.369 26.5183 220.62 25.9115C220.871 25.3046 221 24.6543 221 23.9975C221 23.3407 220.87 22.6904 220.619 22.0837C220.367 21.477 219.999 20.9257 219.534 20.4614C219.07 19.9972 218.518 19.6289 217.911 19.3777C217.305 19.1265 216.654 18.9973 215.997 18.9975C214.671 18.9978 213.399 19.5251 212.461 20.4632C211.524 21.4014 210.997 22.6736 210.997 24C210.998 25.3264 211.525 26.5984 212.463 27.5361C213.401 28.4737 214.674 29.0003 216 29ZM222 18.75H224.998C225.197 18.75 225.388 18.6711 225.529 18.5305C225.67 18.3899 225.749 18.1991 225.75 18V15.0025C225.75 14.8029 225.671 14.6115 225.53 14.4704C225.388 14.3293 225.197 14.25 224.998 14.25H222C221.8 14.25 221.609 14.3293 221.468 14.4704C221.327 14.6115 221.248 14.8029 221.248 15.0025V18C221.25 18.4125 221.587 18.75 222 18.75ZM216 0C209.635 0 203.53 2.52856 199.029 7.02944C194.529 11.5303 192 17.6348 192 24C192 30.3652 194.529 36.4697 199.029 40.9706C203.53 45.4714 209.635 48 216 48C219.152 48 222.273 47.3792 225.184 46.1731C228.096 44.967 230.742 43.1992 232.971 40.9706C235.199 38.742 236.967 36.0962 238.173 33.1844C239.379 30.2726 240 27.1517 240 24C240 20.8483 239.379 17.7274 238.173 14.8156C236.967 11.9038 235.199 9.25804 232.971 7.02944C230.742 4.80083 228.096 3.033 225.184 1.82689C222.273 0.620778 219.152 0 216 0ZM228.5 33.7225C228.5 35.25 227.25 36.5 225.722 36.5H206.278C204.75 36.5 203.5 35.25 203.5 33.7225V14.2775C203.5 12.75 204.75 11.5 206.278 11.5H225.722C227.25 11.5 228.5 12.75 228.5 14.2775V33.7225Z" fill="#F95252"/>
<path d="M31.1847 35.0089L35.0402 16.4464C35.1975 15.6607 35.1057 15.0982 34.7648 14.7589C34.4238 14.4196 33.9736 14.3571 33.4141 14.5714L10.7533 23.4911C10.2463 23.6875 9.90095 23.9107 9.71735 24.1607C9.53376 24.4107 9.5119 24.6473 9.65179 24.8705C9.79167 25.0938 10.0714 25.2679 10.4911 25.3929L16.2874 27.2411L29.7422 18.5893C30.1094 18.3393 30.3891 18.2857 30.5815 18.4286C30.7039 18.5179 30.6689 18.6518 30.4766 18.8304L19.5921 28.875L19.1724 34.9821C19.5746 34.9821 19.968 34.7857 20.3527 34.3929L23.1853 31.6071L29.0603 36.0268C30.1793 36.6696 30.8875 36.3304 31.1847 35.0089ZM47 24C47 27.25 46.3793 30.3571 45.1378 33.3214C43.8964 36.2857 42.2266 38.8393 40.1283 40.9821C38.0301 43.125 35.5298 44.8304 32.6272 46.0982C29.7247 47.3661 26.6823 48 23.5 48C20.3177 48 17.2753 47.3661 14.3728 46.0982C11.4702 44.8304 8.96987 43.125 6.87165 40.9821C4.77344 38.8393 3.10361 36.2857 1.86217 33.3214C0.620722 30.3571 0 27.25 0 24C0 20.75 0.620722 17.6429 1.86217 14.6786C3.10361 11.7143 4.77344 9.16071 6.87165 7.01786C8.96987 4.875 11.4702 3.16964 14.3728 1.90179C17.2753 0.633929 20.3177 0 23.5 0C26.6823 0 29.7247 0.633929 32.6272 1.90179C35.5298 3.16964 38.0301 4.875 40.1283 7.01786C42.2266 9.16071 43.8964 11.7143 45.1378 14.6786C46.3793 17.6429 47 20.75 47 24Z" fill="#004897"/>
</svg>
