<svg width="47" height="48" viewBox="0 0 47 48" fill="none" xmlns="http://www.w3.org/2000/svg">
<path d="M31.1847 35.0089L35.0402 16.4464C35.1975 15.6607 35.1057 15.0982 34.7648 14.7589C34.4238 14.4196 33.9736 14.3571 33.4141 14.5714L10.7533 23.4911C10.2463 23.6875 9.90095 23.9107 9.71736 24.1607C9.53376 24.4107 9.5119 24.6473 9.65179 24.8705C9.79167 25.0938 10.0714 25.2679 10.4911 25.3929L16.2874 27.2411L29.7422 18.5893C30.1094 18.3393 30.3891 18.2857 30.5815 18.4286C30.7039 18.5179 30.6689 18.6518 30.4766 18.8304L19.5921 28.875L19.1724 34.9821C19.5746 34.9821 19.968 34.7857 20.3527 34.3929L23.1853 31.6071L29.0603 36.0268C30.1793 36.6696 30.8875 36.3304 31.1847 35.0089ZM47 24C47 27.25 46.3793 30.3571 45.1378 33.3214C43.8964 36.2857 42.2266 38.8393 40.1283 40.9821C38.0301 43.125 35.5298 44.8304 32.6272 46.0982C29.7247 47.3661 26.6823 48 23.5 48C20.3177 48 17.2753 47.3661 14.3728 46.0982C11.4702 44.8304 8.96987 43.125 6.87165 40.9821C4.77344 38.8393 3.10361 36.2857 1.86217 33.3214C0.620722 30.3571 0 27.25 0 24C0 20.75 0.620722 17.6429 1.86217 14.6786C3.10361 11.7143 4.77344 9.16071 6.87165 7.01786C8.96987 4.875 11.4702 3.16964 14.3728 1.90179C17.2753 0.633929 20.3177 0 23.5 0C26.6823 0 29.7247 0.633929 32.6272 1.90179C35.5298 3.16964 38.0301 4.875 40.1283 7.01786C42.2266 9.16071 43.8964 11.7143 45.1378 14.6786C46.3793 17.6429 47 20.75 47 24Z" fill="#004897"/>
</svg>
